<svg width="302" height="302" viewBox="0 0 302 302" fill="none" xmlns="http://www.w3.org/2000/svg">
<path fill-rule="evenodd" clip-rule="evenodd" d="M284.203 12H111.803C101.261 12 93.1035 21.1048 94.0792 31.6035C103.359 131.294 182.707 210.64 282.383 219.921C292.881 220.896 301.985 212.753 301.985 202.217C301.993 162.313 302 68.9691 302 29.806C302 19.9749 294.033 12.0073 284.203 12.0073V12Z" fill="url(#paint0_linear_6303_26755)"/>
<path d="M193.542 87.765C193.542 87.765 183.229 92.6832 181.954 104.792C180.686 116.893 195.507 116.769 195.507 116.769L211.852 112.862L213.039 93.233L208.861 82.8174L193.542 87.765Z" fill="white" stroke="#15172F" stroke-width="1.5" stroke-linecap="round" stroke-linejoin="round"/>
<path d="M40.5776 180.223H110.335L69.4569 127.067H51.7628L40.5776 180.223Z" fill="#15172F"/>
<path d="M173.928 62.8215C174.829 65.4162 174.243 66.5377 174.243 66.5377C172.74 71.4046 172.799 78.9909 173.099 85.0233C173.4 91.0557 177.93 96.5164 183.405 96.1865C188.88 95.864 191.197 93.196 191.197 93.196L191.622 94.2588C191.622 94.2588 194.253 109.197 194.517 111.784C194.781 114.372 193.843 115.742 193.843 115.742L175.65 153.139L126.9 162.404L126.042 163.716L112.27 161.597C108.693 161.07 106.406 160.366 105.219 160.483C104.038 160.608 101.011 164.141 100.571 166.2C100.132 168.267 99.45 169.044 99.0616 170.54C98.6731 172.035 97.9841 172.739 97.9841 172.739C97.9841 172.739 92.4501 175.091 90.0313 176.279C87.6125 177.474 89.3643 178.309 89.8407 178.485C90.3171 178.661 94.3998 179.511 94.3998 179.511L97.9621 181.058L129.187 180.787L146.441 268.744C167.595 266.867 170.681 248.448 171.392 245.574C172.103 242.701 171.678 240.693 171.436 239.263C171.194 237.834 167.888 218.205 167.888 218.205C178.861 223.93 199.472 230.622 222.766 226.004C246.067 221.386 252.144 209.175 254.291 204.652C256.439 200.137 259.745 184.041 253.28 159.67C246.815 135.298 237.535 124.509 231.408 116.431C225.28 108.354 214.322 100.343 214.322 100.343L207.623 84.4149L211.493 84.9354L215.722 77.7668L209.147 66.1785L197.962 57.3975H177.688L173.935 62.7848L173.928 62.8215Z" fill="white"/>
<path d="M153.222 274.82C153.222 274.82 137.375 273.479 131.467 290.667H180.078L166.65 210.897" stroke="#15172F" stroke-width="1.5" stroke-linecap="round" stroke-linejoin="round"/>
<path d="M159.73 213.178C159.73 213.178 177.453 227.478 206.662 227.478C235.871 227.478 254.606 214.79 256.615 195.85C258.63 176.917 253.793 129.78 214.315 100.373L212.981 86.8418" stroke="#15172F" stroke-width="1.5" stroke-linecap="round" stroke-linejoin="round"/>
<path d="M248.765 194.45L128.916 179.541L146.441 268.773C146.441 268.773 168.247 269.133 171.949 242.364" stroke="#15172F" stroke-width="1.5" stroke-linecap="round" stroke-linejoin="round"/>
<path d="M131.005 190.198L47.9365 245.208C47.9365 245.208 55.3469 264.258 78.5529 254.876C103.503 244.79 138.327 227.485 138.327 227.485L131.005 190.206V190.198Z" fill="#15172F"/>
<path d="M58.1471 262.198L38.6719 270.796L16.646 230.644C16.646 230.644 33.7024 227.418 41.4866 238.97" stroke="#15172F" stroke-width="1.5" stroke-linecap="round" stroke-linejoin="round"/>
<path d="M175.511 62.9102C175.511 62.9102 172.022 69.6242 172.96 83.5874C173.899 97.5506 185.179 99.0312 192.7 92.3172C192.7 92.3172 196.196 89.2607 197.457 87.9047" stroke="#15172F" stroke-width="1.5" stroke-linecap="round" stroke-linejoin="round"/>
<path d="M212.175 106.419C212.175 106.419 200.894 122.801 197.537 122.801C194.18 122.801 194.73 113.8 194.73 113.8L191.615 93.1963" stroke="#15172F" stroke-width="1.5" stroke-linecap="round" stroke-linejoin="round"/>
<path d="M203.98 134.484L191.614 164.698L125.155 169" stroke="#15172F" stroke-width="1.5" stroke-linecap="round" stroke-linejoin="round"/>
<path d="M128.916 179.541C128.916 179.541 121.124 170.745 126.9 162.419L175.651 153.154L194.73 113.808" stroke="#15172F" stroke-width="1.5" stroke-linecap="round" stroke-linejoin="round"/>
<path d="M223.418 191.291L230.433 144.285C230.433 144.285 230.184 142.167 229.07 144.842C227.963 147.51 216.308 177.731 205.578 189.077L223.411 191.298L223.418 191.291Z" fill="#15172F"/>
<path d="M126.241 163.474C126.241 163.474 115.547 162.016 110.848 161.349C106.15 160.674 105.879 159.538 103.13 162.089C100.374 164.64 100.374 167.997 100.374 167.997" stroke="#15172F" stroke-width="1.5" stroke-linecap="round" stroke-linejoin="round"/>
<path d="M103.401 164.698C103.401 164.698 99.1717 167.989 98.7686 171.947" stroke="#15172F" stroke-width="1.5" stroke-linecap="round" stroke-linejoin="round"/>
<path d="M124.767 170.473H113.802C113.802 170.473 110.239 169.601 107.762 168.993C105.277 168.392 101.986 170.869 97.2877 173.09C92.5893 175.304 88.1548 176.579 88.7632 177.723C89.3715 178.866 91.116 178.8 93.9306 178.126C96.7526 177.451 101.854 175.707 101.854 175.707" stroke="#15172F" stroke-width="1.5" stroke-linecap="round" stroke-linejoin="round"/>
<path d="M105.886 172.761C105.886 172.761 101.32 175.92 100.381 177.195C99.4432 178.471 101.085 181.227 101.085 181.227L129.554 182.81" stroke="#15172F" stroke-width="1.5" stroke-linecap="round" stroke-linejoin="round"/>
<path d="M100.572 180.186C100.572 180.186 91.6512 180.553 91.248 179.006L100.088 176.309L100.381 177.195C100.381 177.195 99.8972 178.082 100.579 180.193L100.572 180.186Z" fill="#15172F"/>
<path d="M106.501 177.225L100.374 179.489" stroke="#15172F" stroke-width="1.5" stroke-linecap="round" stroke-linejoin="round"/>
<path d="M40.5776 179.944H129.055L130.279 184.804H40.5776V179.944Z" fill="#15172F"/>
<path d="M36.8499 174.08L1 127.463H70.4569L101.374 167.278" stroke="#15172F" stroke-width="1.5" stroke-linecap="round" stroke-linejoin="round"/>
<path d="M212.131 101.926L205.079 82.3995C210.13 84.8257 214.454 74.1902 211.251 71.0384C208.905 68.7295 205.079 73.9557 205.079 73.9557C201.121 73.3033 199.45 69.1473 198.065 65.072C195.551 57.1778 182.555 63.1369 174.573 65.4238C162.787 68.8028 157.348 53.4177 165.359 45.9853C173.371 38.5529 187.649 43.2146 190.999 45.9853C194.349 48.7559 199.883 50.9402 203.24 50.2072C206.589 49.4816 216.88 50.068 217.503 61.9788C217.503 61.9788 218.573 74.1536 223.242 76.9902C227.472 79.5629 243.949 83.9168 243.993 98.3418C244.015 106.097 240.27 113.815 232.976 118.528C232.976 118.528 221.183 103.678 211.134 99.17" fill="white"/>
<path d="M212.131 101.926L205.079 82.3995C210.13 84.8257 214.454 74.1902 211.251 71.0384C208.905 68.7295 205.079 73.9557 205.079 73.9557C201.121 73.3033 199.45 69.1473 198.065 65.072C195.551 57.1778 182.555 63.1369 174.573 65.4238C162.787 68.8028 157.348 53.4177 165.359 45.9853C173.371 38.5529 187.649 43.2146 190.999 45.9853C194.349 48.7559 199.883 50.9402 203.24 50.2072C206.589 49.4816 216.88 50.068 217.503 61.9788C217.503 61.9788 218.573 74.1536 223.242 76.9902C227.472 79.5629 243.949 83.9168 243.993 98.3418C244.015 106.097 240.27 113.815 232.976 118.528C232.976 118.528 221.183 103.678 211.134 99.17" stroke="#15172F" stroke-width="1.5" stroke-linecap="round" stroke-linejoin="round"/>
<path d="M191.49 93.4673L197.134 88.2412L192.993 101.926L191.49 93.4673Z" fill="#15172F"/>
<path d="M174.14 81.0426C177.565 81.0426 180.341 78.2663 180.341 74.8416C180.341 71.4169 177.565 68.6406 174.14 68.6406C170.716 68.6406 167.939 71.4169 167.939 74.8416C167.939 78.2663 170.716 81.0426 174.14 81.0426Z" stroke="#15172F" stroke-width="1.5" stroke-linecap="round" stroke-linejoin="round"/>
<path d="M189.789 81.0426C193.214 81.0426 195.99 78.2663 195.99 74.8416C195.99 71.4169 193.214 68.6406 189.789 68.6406C186.365 68.6406 183.588 71.4169 183.588 74.8416C183.588 78.2663 186.365 81.0426 189.789 81.0426Z" stroke="#15172F" stroke-width="1.5" stroke-linecap="round" stroke-linejoin="round"/>
<path d="M183.588 74.8418H180.341" stroke="#15172F" stroke-width="1.5" stroke-linecap="round" stroke-linejoin="round"/>
<path d="M205.072 82.3991C205.072 82.3991 207.623 84.4514 210.423 80.2441L209.587 94.8817L205.08 82.3991H205.072Z" fill="#15172F"/>
<defs>
<linearGradient id="paint0_linear_6303_26755" x1="246.1" y1="22.4" x2="151.2" y2="206.35" gradientUnits="userSpaceOnUse">
<stop stop-color="#00ECA1"/>
<stop offset="1" stop-color="#39D87D"/>
</linearGradient>
</defs>
</svg>
