<svg width="302" height="302" viewBox="0 0 302 302" fill="none" xmlns="http://www.w3.org/2000/svg">
<path d="M103.5 301C160.665 301 207 254.663 207 197.5C207 140.337 160.658 94 103.5 94C46.3416 94 0 140.337 0 197.5C0 254.663 46.3416 301 103.5 301Z" fill="url(#paint0_linear_6303_27257)"/>
<path d="M194.709 234.495C195.034 234.848 194.899 235.105 194.736 235.349H226.392L214.521 209.06C214.385 209.1 214.25 209.155 214.128 209.209C214.236 209.046 214.033 208.748 213.897 208.775L213.992 209.087C213.83 208.951 214.06 208.924 213.789 208.775C213.654 208.897 213.857 209.155 213.979 209.195H213.748C213.776 209.29 213.843 209.304 213.911 209.412C213.748 209.277 213.748 209.859 213.477 209.615L213.518 209.71C213.125 209.927 212.881 209.927 212.556 210.09C212.407 209.859 212.312 209.981 212.109 209.832C211.919 210.049 211.77 210.401 211.472 210.55C211.201 210.55 211.296 210.388 211.12 210.306C211.241 210.523 210.943 210.686 211.187 210.74C210.835 210.916 210.726 210.943 210.198 211.065C210.198 210.943 210.212 210.876 210.144 210.821C210.049 210.835 210.035 211.025 210.103 211.12H210.144C209.466 211.147 209.493 212.461 208.829 212.312H208.87L208.341 212.393C208.206 212.556 208.558 212.461 208.531 212.678C207.881 212.664 207.949 213.22 207.447 213.261C207.664 214.02 206.566 213.965 206.553 214.602L206.458 214.453C206.255 214.399 206.431 214.616 206.39 214.697C206.309 214.589 206.377 214.507 206.255 214.48C205.414 214.968 205.035 216.011 204.507 216.825C204.317 217.123 203.707 216.377 203.721 216.987L204.046 217.109C203.666 217.245 203.422 217.516 203.192 217.8C202.975 218.098 202.772 218.383 202.42 218.559C202.501 218.559 202.582 218.627 202.623 218.573C202.718 218.83 202.298 219.006 202.149 218.898C202.094 218.993 202.271 219.02 202.311 219.128C202.338 219.332 201.837 219.237 201.986 219.44C202.013 219.467 202.067 219.44 202.094 219.44C201.945 219.44 201.864 219.819 201.701 219.589C201.661 219.874 201.322 219.928 201.336 220.199C201.363 220.199 201.376 220.199 201.417 220.212V220.429C201.363 220.334 201.349 220.267 201.336 220.199C201.01 220.145 201.2 220.646 200.821 220.443C201.2 220.673 200.848 221.012 200.604 221.053C200.739 221.08 200.644 221.256 200.834 221.296V221.269V221.296C200.726 221.446 200.577 221.554 200.4 221.405C200.672 221.974 199.669 221.784 200.143 222.299C199.628 222.652 199.276 223.045 198.923 223.451C199.316 223.641 199.235 222.977 199.628 223.221C199.249 223.559 198.774 223.627 198.639 224.102C198.639 224.237 198.842 224.129 198.923 224.129C198.53 224.467 198.558 224.982 198.151 225.267C198.192 225.28 198.246 225.267 198.3 225.24C198.3 225.24 198.314 225.226 198.327 225.213C198.409 225.159 198.368 225.213 198.3 225.24C198.246 225.308 198.273 225.443 198.097 225.348L198.178 225.294C197.975 225.05 197.487 225.348 197.338 225.294C197.921 225.402 197.284 225.741 198.043 225.836C197.988 225.877 197.866 225.89 197.758 225.836C197.758 225.931 197.812 225.985 197.988 225.972C197.758 226.202 197.609 226.026 197.514 226.283C197.609 226.324 197.663 226.283 197.772 226.297C197.541 226.351 197.324 226.405 197.311 226.663C197.365 226.663 197.433 226.73 197.46 226.663C197.284 227.015 196.742 227.11 196.742 227.584C197.189 227.611 196.809 227.774 197.148 227.923C197.081 227.977 197.026 228.045 196.959 228.099L196.823 227.95C196.769 228.153 196.457 228.235 196.511 228.438L196.701 228.343L196.511 228.682L196.457 228.424C196.213 228.56 196.024 228.248 196.037 228.546C196.091 228.506 195.969 228.75 196.145 228.926C196.145 228.926 196.267 228.872 196.308 228.831C196.308 228.763 196.308 228.682 196.362 228.641C196.389 228.736 196.362 228.79 196.308 228.831C196.308 228.912 196.294 228.966 196.145 228.926C195.996 228.98 195.847 229.048 195.888 229.224C195.983 229.292 196.281 229.319 196.349 229.359C196.023 229.359 196.105 229.793 195.766 229.82C195.847 229.807 196.037 229.861 196.064 229.874H195.807C195.861 229.996 195.888 230.023 196.037 230.051C195.996 230.349 195.617 229.834 195.712 230.213C195.739 230.186 195.766 230.213 195.82 230.172C195.82 230.538 195.495 230.769 195.522 231.121C195.847 231.311 195.685 230.877 195.956 231.067C195.766 231.487 195.278 231.866 195.278 232.327L195.251 232.232C194.736 232.178 195.427 232.612 195.143 232.774C195.197 232.734 195.441 232.774 195.373 232.774C195.387 233.086 195.116 233.343 194.858 233.777L194.994 233.75C195.088 233.953 194.994 234.224 195.021 234.428C194.885 234.468 194.885 234.577 194.709 234.482V234.495ZM195.942 230.931H195.712L195.834 230.769L195.956 230.931H195.942Z" fill="#15172F"/>
<path d="M37.475 149.164C37.3802 149.245 37.2582 149.272 37.1362 149.299L45.9851 168.908C46.2832 168.474 46.7982 168.19 47.0963 167.526L47.015 167.837C47.2725 167.851 47.3538 167.35 47.6113 167.146C47.4351 167.065 47.4893 166.862 47.4622 166.686C47.4351 166.672 47.4215 166.631 47.4215 166.536C47.4486 166.577 47.4622 166.631 47.4622 166.686C47.5706 166.78 47.8552 166.089 48.2211 166.238C48.2211 166.076 48.2481 165.9 48.2752 165.737C48.6682 165.046 49.251 165.358 49.6575 164.734C49.3594 164.775 49.4542 164.422 49.0341 164.734C49.1832 164.531 49.3052 164.341 49.4136 164.423C49.4136 164.233 50.064 164.057 50.064 163.758C50.0098 163.758 49.9556 163.799 49.915 163.908C49.9556 163.826 49.9556 163.772 50.064 163.704C50.064 163.718 50.064 163.731 50.064 163.758C50.1995 163.731 50.3622 163.84 50.5383 163.623C50.5383 163.569 50.4705 163.555 50.4705 163.555C50.5383 163.623 50.8636 163.311 50.8636 163.637C50.9178 162.661 52.3406 162.105 52.449 161.279C52.4219 161.306 52.3813 161.333 52.3542 161.346L52.4626 161.184C52.4626 161.184 52.4626 161.238 52.4626 161.265C52.8962 160.926 53.4111 160.52 53.7906 160.208C53.7228 160.181 53.7229 160.14 53.6687 160.208C54.0481 159.612 54.3462 160.33 54.7799 159.68C54.8747 159.192 54.3597 159.829 54.4681 159.571C54.1294 159.029 55.2134 159.016 55.376 158.406L55.2541 158.46C55.4167 158.04 56.1485 158.013 56.6228 157.579C56.6228 157.579 56.5686 157.552 56.5551 157.511C57.0971 157.484 57.8153 157.037 58.3573 156.725C58.0592 156.644 58.0592 156.793 57.9915 156.522C58.2354 156.373 58.1812 156.888 58.6555 156.603C58.7097 156.387 58.9536 156.048 58.8317 155.804L58.4116 156.116C58.4116 155.682 58.9536 155.709 59.1297 155.492L59.0078 155.397C59.6718 154.95 59.9157 155.248 60.5797 154.706V154.855C61.176 154.869 60.7559 154.449 61.3115 154.381L61.1895 153.988C61.4877 153.88 62.2736 153.622 62.7614 153.351C62.3414 153.311 61.7315 153.595 61.3115 153.704C61.5554 153.514 62.1517 153.094 62.3956 153.148C62.2737 153.189 62.0975 153.216 62.0297 153.338C62.5175 153.338 62.9918 153.175 63.4797 152.796C62.9376 152.267 64.618 151.671 64.6045 150.939C65.6208 150.492 66.1899 149.53 67.152 148.757C67.1927 149.489 67.4366 148.541 67.7754 149.042C68.0193 148.879 68.1006 148.798 68.087 148.757L68.06 148.812C68.06 148.812 68.0735 148.771 68.087 148.744C68.0599 148.622 67.3824 148.784 67.667 148.337C67.5179 148.784 68.3716 148.148 68.087 148.744L68.5071 147.89C68.5478 147.619 68.209 147.971 68.1413 147.863C68.5749 147.402 68.1684 147.497 68.3716 147.104C68.4529 147.321 68.7375 147.185 68.9408 146.874L68.7646 147.416C69.6319 147.05 68.9815 146.535 69.8352 146.156L69.51 146.21C69.9165 145.979 70.6889 145.044 71.3258 145.044C71.3258 144.936 71.2852 144.746 71.1226 144.868C71.8137 144.055 73.101 143.418 73.3991 142.578L73.2365 142.551C73.3992 142.429 73.6701 142.443 73.7108 142.158C73.6566 142.131 73.5481 142.131 73.5888 142.05C73.6972 141.995 74.1173 141.779 74.1986 141.521L73.9276 141.602C74.3748 140.654 75.1879 140.532 75.7299 139.827C75.364 139.61 75.6622 138.838 75.7842 138.445H75.7299C76.2584 137.374 76.9495 136.778 77.5187 135.789C77.3154 134.989 78.0743 133.512 77.9794 132.374C78.0201 132.55 78.3182 132.415 78.3995 132.225C78.3724 131.954 78.7925 131.547 78.3995 131.547V131.642C78.0336 131.398 78.2234 130.897 78.2234 130.477L78.7383 130.45C78.115 129.339 79.0635 127.563 78.3588 126.981C78.4672 126.71 78.4266 126.384 78.535 126.1L78.264 126.14C78.1149 125.422 78.0472 125.07 77.9523 124.162L77.7897 124.379C77.6813 123.877 78.4673 123.606 78.386 123.119L77.9523 123.064C77.7762 122.17 77.207 121.37 77.3289 120.422C77.2747 120.449 77.1664 120.517 77.1935 120.652C77.0715 120.246 76.4753 119.148 77.0444 119.135C76.6921 119.229 76.7327 118.254 76.7191 117.725L76.4888 117.888C76.6785 117.386 76.7733 117.332 76.6649 116.75C76.5836 116.628 76.4211 116.709 76.543 116.858C76.2585 116.465 76.665 116.424 76.3397 115.95L76.2449 116.207C76.0687 115.76 76.1636 115.774 76.2584 115.449C76.2584 115.123 75.8789 114.622 75.6215 114.649C75.7434 114.541 75.8248 114.215 75.6622 113.985C75.5673 113.985 75.5402 114.107 75.5402 114.161C75.0794 113.484 75.3912 112.942 74.9304 112.535C74.8491 112.562 74.7814 112.535 74.7407 112.508C74.9846 113.091 75.2014 113.565 75.2014 113.511C74.971 113.606 74.7271 113.145 74.5645 113.66C74.5916 113.213 74.7 112.4 74.4019 111.993C74.3748 111.993 74.3341 111.966 74.2935 111.966V112.02C74.2257 111.925 74.1986 111.817 74.1986 111.722C74.1038 111.587 74.0225 111.505 73.9683 111.37C73.7515 111.397 73.6295 110.882 73.5211 110.652C73.7785 110.557 73.6024 110.272 73.9411 110.462C73.9005 110.435 73.9412 110.516 73.9818 110.679C73.9818 110.652 73.9818 110.638 73.9818 110.611C74.0225 110.638 74.0496 110.652 74.0767 110.679C74.1851 110.489 74.2935 110.286 74.3342 110.177C73.8328 110.015 73.372 109.486 73.1145 109.5C73.1145 109.445 73.0875 109.405 73.0739 109.351H52.6252C52.6523 109.473 52.8285 109.473 52.8827 109.378C52.7607 109.866 52.6658 110.692 53.0317 111.099L53.0995 110.99C53.2756 111.329 52.5846 111.492 52.9098 111.776L52.9504 111.709C53.2079 112.454 53.0859 113.321 53.5467 113.877C53.1401 114.026 53.8042 114.622 53.235 114.73C53.5602 115.15 53.6551 115.015 53.899 115.625C53.9261 115.787 53.5467 115.896 53.4925 116.099H53.7906L53.8448 116.031V116.086H53.7906L53.4789 116.384L53.8448 116.519L53.777 116.722C53.7635 116.641 53.6415 116.56 53.5467 116.573C53.4247 116.872 53.7771 117.305 53.9261 117.305L53.6957 118.023C53.8177 118.01 53.8584 117.888 53.9261 117.793C53.628 118.172 54.2513 117.861 53.9667 118.213C53.899 118.159 53.7906 118.24 53.7228 118.24C53.899 118.416 53.8854 118.823 53.7906 119.107L53.9939 119.053C54.021 119.595 53.8448 120.178 53.8313 120.774C53.75 120.557 53.384 120.571 53.3434 120.747L53.6551 120.842C53.4518 120.937 53.5602 120.652 53.2892 120.856C53.2892 121.072 53.628 121.032 53.75 120.91L53.6144 121.167C53.7093 121.194 53.7635 121.127 53.8854 121.127C53.6822 121.221 54.1565 121.628 53.7906 121.75L53.8854 121.777C53.8177 122.373 53.6822 122.631 53.6144 123.119C53.3434 123.091 53.3841 123.295 53.1401 123.403C53.1672 123.769 53.3027 124.189 53.2079 124.609C53.0182 124.88 52.964 124.65 52.7742 124.758C53.0182 124.826 52.9233 125.246 53.1401 125.056C53.0046 125.558 53.0046 125.707 52.6252 126.29C52.5439 126.195 52.5168 126.113 52.4219 126.127C52.3541 126.235 52.4625 126.412 52.5845 126.425L52.6116 126.398C52.0696 127.008 52.9233 128.227 52.2457 128.647L52.2864 128.62L51.8392 129.122C51.7986 129.393 52.0696 129.013 52.1509 129.257C51.5547 129.745 51.8799 130.26 51.4598 130.68C52.029 131.331 50.8635 132.035 51.0939 132.74L50.9449 132.645C50.728 132.713 50.972 132.848 50.9584 132.97C50.8365 132.903 50.8771 132.767 50.7551 132.808C50.4435 133.35 50.1996 133.919 50.0234 134.542C49.8337 135.166 49.7117 135.83 49.4407 136.412C49.251 136.846 48.5192 136.195 48.6005 136.9H48.9664C48.5598 137.225 48.343 137.645 48.0991 138.052C47.8416 138.459 47.5977 138.851 47.2183 139.15C47.3132 139.15 47.3944 139.204 47.4351 139.122C47.5299 139.407 47.0557 139.719 46.8931 139.61C46.8389 139.746 47.015 139.732 47.0557 139.868C47.0557 140.112 46.5407 140.098 46.6627 140.315C46.6762 140.356 46.7576 140.315 46.7982 140.301C46.6356 140.342 46.4729 140.789 46.3239 140.532C46.229 140.884 45.8361 140.979 45.7954 141.291C45.8225 141.291 45.8496 141.291 45.8767 141.291L45.8361 141.548C45.7954 141.44 45.7954 141.358 45.7954 141.277C45.4431 141.236 45.5651 141.833 45.1856 141.616C45.5515 141.873 45.1043 142.321 44.7926 142.348C44.9416 142.375 44.7926 142.578 44.9823 142.632L45.0095 142.605V142.632H44.9823C44.8197 142.822 44.6029 142.944 44.4674 142.754C44.5758 143.445 43.5595 143.174 43.9118 143.811C43.2749 144.218 42.6651 144.57 42.1502 144.977C42.489 145.261 42.6787 144.489 42.9903 144.814C42.4212 145.139 41.9063 145.139 41.5675 145.654C41.4997 145.817 41.7707 145.722 41.852 145.735C41.2964 146.047 41.0119 146.589 40.4563 146.806C40.4834 146.833 40.5647 146.833 40.6189 146.806C40.6189 146.806 40.6459 146.792 40.6595 146.779C40.7679 146.752 40.7002 146.779 40.6189 146.806C40.524 146.874 40.4834 147.023 40.3478 146.874L40.4563 146.847C40.375 146.521 39.7245 146.698 39.6161 146.589C40.1446 146.887 39.318 147.063 40.0226 147.402C39.9413 147.429 39.8193 147.402 39.738 147.307C39.6838 147.402 39.7109 147.484 39.9006 147.524C39.5483 147.714 39.4941 147.456 39.2366 147.687C39.3044 147.755 39.3857 147.741 39.4806 147.809C39.2231 147.782 38.9656 147.755 38.7894 148.012C38.8436 148.039 38.8708 148.12 38.925 148.066C38.5185 148.378 37.9357 148.242 37.6376 148.744C38.0306 148.961 37.5834 148.974 37.7867 149.272L37.475 149.367V149.15V149.164ZM78.2504 130.138L78.3588 129.759V129.935L78.2504 130.138ZM60.39 154.652C60.39 154.462 60.5797 154.191 60.8101 154.205C60.6339 154.368 60.5119 154.611 60.39 154.652ZM51.8256 161.495L51.9882 161.78C51.8121 161.875 51.5411 161.658 51.8256 161.495Z" fill="#15172F"/>
<path d="M19.0996 109.338L36.4722 147.81C36.4722 147.81 36.5942 147.701 36.6484 147.606C36.6484 147.566 36.6483 147.539 36.689 147.539C36.6754 147.566 36.6619 147.579 36.6484 147.606C36.6484 147.688 36.689 147.837 36.7297 147.796C37.0414 147.349 37.0413 147.823 37.353 147.62C37.3936 147.349 37.0278 147.349 37.3937 147.227C37.4885 146.997 37.231 146.956 37.1091 146.942C37.5021 146.902 37.475 146.441 37.5834 146.292L37.3937 146.333C37.5021 146.305 37.5698 146.251 37.6376 146.197L37.7189 146.441C37.7731 146.346 37.8273 146.292 37.7731 146.224C37.9492 146.265 37.9628 146.563 38.261 146.59C38.2881 146.414 38.6539 146.414 38.4913 146.156C38.2474 146.509 38.3151 145.899 38.017 146.089C38.0983 146.075 38.1525 146.021 38.2067 145.926C38.2067 145.885 38.1525 145.885 38.1254 145.885C38.0577 145.885 38.0848 145.885 38.1254 145.885C38.2338 145.411 38.4913 146.021 38.7894 145.723C38.6403 145.628 38.6403 145.411 38.7081 145.398C38.5861 145.519 38.8436 145.669 39.0469 145.655C39.1553 145.37 39.3315 145.533 39.4128 145.425L39.345 145.587C39.5077 145.682 39.589 145.574 39.7651 145.479C39.6838 145.37 39.5754 145.533 39.589 145.438C39.9548 145.519 39.7109 144.883 40.0632 144.842C40.0768 144.666 39.8465 144.598 39.8736 144.462C40.2665 144.408 39.9548 144.042 40.3207 143.934C40.4155 144.164 40.3614 144.137 40.7002 144.124L40.1988 144.408L40.6866 144.381C40.5646 144.503 40.3343 144.544 40.2936 144.639C40.5511 144.652 40.4969 144.625 40.5782 144.815C40.4969 144.395 41.0389 144.625 41.066 144.259L40.6459 143.866C40.7408 143.392 41.3506 143.555 41.6081 143.08L41.5675 143.27C41.7843 143.378 41.8113 143.053 42.001 142.999C41.852 142.877 41.8655 142.755 41.8248 142.62C41.9333 142.728 42.0553 142.321 42.3805 142.538L42.3398 142.186C42.5295 141.793 43.0716 142.186 43.2884 141.82C43.0445 141.779 43.058 141.549 42.7734 141.657C42.8548 141.549 42.9089 141.441 43.0174 141.522C42.9767 141.386 43.4646 141.4 43.3968 141.183C43.3562 141.183 43.3155 141.183 43.3155 141.264C43.3291 141.21 43.3155 141.17 43.3833 141.142C43.3833 141.156 43.3833 141.17 43.3833 141.183C43.4917 141.183 43.6543 141.305 43.7356 141.183C43.7221 141.142 43.6543 141.129 43.6543 141.129C43.7221 141.183 43.9118 141.021 43.9931 141.264C43.7763 140.56 44.7384 140.343 44.5486 139.747L44.4945 139.787L44.5216 139.679C44.5216 139.679 44.5351 139.72 44.5486 139.747C44.779 139.543 45.05 139.299 45.2126 139.096C45.1584 139.083 45.1314 139.042 45.1179 139.096C45.1856 138.69 45.7005 139.232 45.7683 138.757C45.6328 138.405 45.5108 138.852 45.4837 138.676C44.9958 138.27 45.836 138.297 45.687 137.85L45.6192 137.89C45.5515 137.592 46.1071 137.578 46.2697 137.267C46.2697 137.267 46.2155 137.253 46.1884 137.213C46.6084 137.185 46.9337 136.847 47.1776 136.589C46.9065 136.549 46.9879 136.657 46.7982 136.467C46.9066 136.359 47.1234 136.711 47.3402 136.481C47.2724 136.318 47.286 136.074 47.0557 135.912L46.9065 136.156C46.6762 135.857 47.0963 135.844 47.1234 135.681L46.9879 135.627C47.2454 135.275 47.5841 135.451 47.801 135.031L47.8823 135.126C48.343 135.085 47.801 134.841 48.1669 134.733L47.8551 134.489C48.0177 134.38 48.4514 134.123 48.6547 133.879C48.3159 133.906 48.0313 134.164 47.7874 134.286C47.8551 134.136 48.0719 133.784 48.2752 133.784C48.2075 133.825 48.0855 133.865 48.1126 133.947C48.4785 133.893 48.736 133.716 48.8715 133.405C48.1668 133.134 49.1019 132.537 48.6411 132.063C49.1154 131.63 48.9799 130.938 49.278 130.315C49.7252 130.749 49.3729 130.139 49.9149 130.383C50.0098 130.247 50.0098 130.193 49.9827 130.166C49.8878 130.098 49.4813 130.315 49.4271 129.99C49.5897 130.288 49.8336 129.746 49.9827 130.166L49.7929 129.583C49.6574 129.421 49.6168 129.692 49.4948 129.624C49.5626 129.272 49.3051 129.407 49.2238 129.136C49.4135 129.245 49.549 129.123 49.5355 128.906L49.7116 129.258C50.1724 128.892 49.3593 128.702 49.8201 128.337L49.5897 128.431C49.7794 128.228 49.8742 127.551 50.3892 127.442C50.335 127.374 50.186 127.28 50.1182 127.374C50.1995 126.778 50.9448 126.196 50.7687 125.667H50.6196C50.6874 125.586 50.9448 125.545 50.8228 125.382C50.7686 125.382 50.6738 125.396 50.6738 125.342C50.728 125.288 50.9719 125.098 50.9177 124.935L50.728 125.03C50.6467 124.42 51.2836 124.217 51.4733 123.729C51.0397 123.661 50.9991 123.187 50.9584 122.943H50.8906C50.9177 122.266 51.3649 121.832 51.6088 121.209C51.2158 120.775 51.514 119.854 51.27 119.203C51.3378 119.298 51.6088 119.203 51.6494 119.095C51.5681 118.946 51.9611 118.688 51.5681 118.702V118.756C51.1887 118.634 51.3107 118.336 51.3107 118.092L51.8256 118.051C51.0532 117.428 52.056 116.398 51.3785 116.073C51.5004 115.91 51.5004 115.734 51.6224 115.571L51.3514 115.599C51.2429 115.192 51.1888 114.989 51.2023 114.474L51.0126 114.596C50.9719 114.311 51.7714 114.149 51.7579 113.877L51.3378 113.837C51.3107 113.322 50.8635 112.875 51.1481 112.319C51.0938 112.333 50.9719 112.373 50.9719 112.455C50.9177 112.224 50.5383 111.601 51.121 111.587C50.7551 111.642 50.999 111.072 51.121 110.774L50.8635 110.869C51.1617 110.571 51.2429 110.544 51.2565 110.205C51.2023 110.137 51.0261 110.192 51.121 110.273C50.9177 110.056 51.3243 110.015 51.121 109.744L50.9854 109.893C50.9041 109.636 50.9855 109.636 51.1616 109.446C51.1616 109.419 51.1616 109.379 51.1616 109.338H19.1402H19.0996ZM51.3378 117.862L51.4191 117.645V117.753L51.3378 117.875V117.862ZM47.679 134.638C47.6383 134.773 47.679 134.936 47.6112 134.977C47.5028 134.841 47.5028 134.651 47.679 134.638ZM44.1015 139.828L44.3183 140.045C44.2099 140.099 43.9253 139.896 44.1015 139.828Z" fill="#15172F"/>
<path d="M47.0018 171.131L47.0831 171.307C47.1508 171.253 47.2322 171.198 47.2864 171.171C47.2322 171.253 47.1915 171.334 47.1373 171.402L76.0148 235.336H193.815C193.815 235.336 194.018 235.336 194.018 235.241C193.829 235.214 193.896 235.133 193.747 235.133C193.72 235.16 193.815 235.241 193.734 235.268C193.72 235.133 193.625 234.97 193.49 234.889C193.598 234.916 193.747 234.93 193.788 234.835C193.842 234.591 193.571 234.713 193.49 234.564C193.639 234.523 193.517 234.347 193.801 234.388C193.801 234.32 193.68 234.279 193.612 234.238C193.761 234.13 193.747 233.656 194.018 233.859C194.018 233.859 194.032 233.859 194.059 233.873C194.398 233.52 194.059 233.005 194.276 232.626H194.181C194.344 232.396 194.357 232.084 194.601 231.962C194.615 231.894 194.466 231.759 194.344 231.759C194.452 231.596 194.56 231.596 194.479 231.298C194.262 231.433 194.344 231.203 194.316 231.46C194.289 231.203 194.167 231.108 194.493 230.932C194.235 230.959 194.235 230.675 194.344 230.58L194.465 230.796C194.533 230.674 194.547 230.566 194.56 230.444L194.235 230.417C193.991 229.821 195.116 229.74 194.601 229.184C194.859 229.13 194.669 229.496 194.967 229.455C194.994 229.225 194.628 228.859 194.655 228.791C194.587 228.439 195.197 228.655 195.184 228.303C195.279 228.384 195.563 228.52 195.739 228.317C195.766 228.086 195.373 227.897 195.238 227.991C195.211 228.046 195.238 228.073 195.279 228.086C195.306 228.059 195.346 228.032 195.36 228.046C195.333 228.086 195.306 228.086 195.279 228.086C195.211 228.14 195.13 228.222 195.048 228.086H195.17C195.089 227.951 195.211 227.653 195.008 227.653C195.17 227.531 195.211 227.653 195.224 227.788C195.17 227.449 195.36 227.341 195.373 227.029C195.414 227.097 195.522 227.192 195.55 227.138C195.577 226.677 195.834 227.029 195.983 226.772C195.888 226.555 195.563 226.677 195.821 226.447C195.78 226.23 195.55 226.297 195.428 226.325C195.739 226.148 195.482 225.783 195.509 225.62L195.373 225.715C195.455 225.661 195.482 225.579 195.509 225.512L195.685 225.674C195.685 225.579 195.712 225.512 195.617 225.471C195.794 225.444 195.943 225.688 196.2 225.606C196.132 225.457 196.444 225.335 196.187 225.173C196.132 225.539 195.915 225.01 195.753 225.268C195.807 225.227 195.834 225.159 195.834 225.064C195.807 225.037 195.766 225.051 195.739 225.064C195.739 225.064 195.712 225.078 195.739 225.064C195.631 224.631 196.132 225.064 196.268 224.739C196.092 224.712 195.997 224.522 196.065 224.495C196.01 224.631 196.295 224.671 196.471 224.617C196.444 224.346 196.674 224.427 196.701 224.319V224.468C196.878 224.495 196.905 224.387 197.027 224.265C196.905 224.197 196.878 224.36 196.851 224.278C197.203 224.251 196.729 223.777 197.027 223.641C196.972 223.492 196.742 223.492 196.715 223.357C197.04 223.208 196.647 222.977 196.945 222.801C197.108 222.977 197.054 222.964 197.352 222.896L196.973 223.248L197.42 223.127C197.352 223.248 197.149 223.33 197.135 223.425C197.379 223.384 197.311 223.37 197.46 223.519C197.244 223.194 197.826 223.276 197.718 222.964L197.203 222.706C197.135 222.286 197.758 222.313 197.84 221.853V222.029C198.084 222.083 198.016 221.799 198.165 221.717C197.989 221.636 197.975 221.514 197.894 221.406C198.016 221.487 198.057 221.121 198.409 221.284L198.3 220.985C198.395 220.62 198.992 220.918 199.114 220.592C198.883 220.565 198.842 220.362 198.599 220.484C198.653 220.389 198.68 220.281 198.802 220.349C198.734 220.227 199.195 220.213 199.086 220.023C199.046 220.023 199.019 220.023 199.032 220.105C199.032 220.05 199.019 220.023 199.073 219.996L199.086 220.023C199.181 220.023 199.357 220.118 199.412 220.01C199.385 219.983 199.33 219.956 199.33 219.956C199.412 220.01 199.547 219.861 199.669 220.064C199.371 219.441 200.265 219.278 200.008 218.736L199.967 218.777V218.682L200.008 218.736C200.198 218.573 200.428 218.356 200.564 218.18C200.509 218.153 200.482 218.126 200.482 218.18C200.523 217.828 201.051 218.356 201.106 217.964C200.97 217.638 200.848 218.004 200.835 217.855C200.36 217.435 201.173 217.571 201.024 217.15L200.957 217.178C200.902 216.893 201.417 216.974 201.566 216.703C201.566 216.703 201.512 216.676 201.485 216.649C201.851 216.69 202.19 216.459 202.447 216.31C202.203 216.215 202.257 216.31 202.108 216.121C202.217 216.053 202.393 216.419 202.61 216.27C202.556 216.121 202.596 215.904 202.406 215.7L202.23 215.877C202.054 215.551 202.447 215.646 202.488 215.511L202.366 215.416C202.65 215.172 202.935 215.416 203.179 215.104L203.233 215.213C203.653 215.307 203.206 214.928 203.558 214.969L203.328 214.657C203.504 214.616 203.951 214.562 204.182 214.427C203.87 214.332 203.558 214.44 203.301 214.454C203.396 214.345 203.667 214.129 203.856 214.21C203.789 214.223 203.667 214.21 203.667 214.291C204.006 214.372 204.277 214.318 204.466 214.115C203.911 213.614 204.859 213.451 204.629 212.895C205.198 212.76 205.306 212.137 205.781 211.757C205.998 212.34 205.916 211.649 206.282 212.137C206.404 212.082 206.445 212.042 206.431 212.015C206.391 211.92 205.943 211.852 206.038 211.581C206.038 211.893 206.485 211.635 206.431 212.015L206.526 211.486C206.499 211.283 206.336 211.459 206.269 211.351C206.485 211.12 206.214 211.08 206.269 210.822C206.363 211.012 206.54 210.998 206.634 210.822L206.607 211.188C207.136 211.174 206.58 210.565 207.122 210.551L206.905 210.483C207.149 210.429 207.556 209.968 208.017 210.239C208.017 210.158 207.949 209.995 207.854 210.023C208.247 209.657 209.101 209.765 209.277 209.291L209.169 209.196C209.277 209.169 209.453 209.331 209.48 209.142C209.44 209.101 209.372 209.047 209.399 209.006C209.467 209.02 209.765 209.088 209.819 208.938L209.643 208.857C209.982 208.424 210.524 208.776 210.944 208.64C210.727 208.274 210.998 207.936 211.133 207.773L211.093 207.719C211.594 207.38 212.163 207.543 212.719 207.434C212.773 207.055 213.139 206.879 213.505 206.675L201.593 180.305C201.228 180.63 200.862 180.928 200.767 181.389C200.428 181.145 200.333 181.999 199.927 181.565C199.778 182.039 199.927 182.053 199.588 182.568C199.479 182.676 199.181 182.419 198.992 182.473L199.168 182.717H199.249L199.208 182.771L199.168 182.717L198.775 182.609L198.87 182.988L198.68 183.029C198.68 183.029 198.721 182.825 198.68 182.758C198.382 182.812 198.233 183.313 198.314 183.449L197.623 183.598C197.704 183.693 197.813 183.666 197.935 183.679C197.474 183.611 198.057 183.977 197.623 183.923C197.623 183.842 197.501 183.788 197.474 183.733C197.433 183.977 197.122 184.167 196.851 184.248L197 184.397C196.607 184.695 196.065 184.844 195.59 185.116C195.712 184.939 195.495 184.641 195.333 184.695L195.441 185.007C195.252 184.885 195.522 184.817 195.224 184.709C195.062 184.845 195.279 185.088 195.441 185.129L195.17 185.156C195.211 185.251 195.279 185.265 195.346 185.359C195.157 185.237 195.13 185.847 194.831 185.617L194.859 185.712C194.384 185.969 194.113 185.996 193.72 186.186C193.585 185.942 193.463 186.078 193.246 185.942C193.002 186.173 192.785 186.525 192.433 186.687C192.135 186.687 192.257 186.511 192.067 186.43C192.162 186.66 191.81 186.823 192.067 186.891C191.633 187.067 191.511 187.121 190.902 187.202C190.902 187.08 190.956 187.013 190.888 186.945C190.78 186.945 190.725 187.148 190.793 187.243H190.834C190.075 187.216 189.817 188.585 189.113 188.354H189.153L188.544 188.368C188.34 188.517 188.76 188.463 188.666 188.693C187.961 188.585 187.88 189.167 187.338 189.14C187.365 189.967 186.172 189.723 185.969 190.373L185.901 190.211C185.711 190.129 185.82 190.373 185.752 190.455C185.698 190.333 185.793 190.251 185.684 190.211C184.641 190.563 183.896 191.566 183.055 192.284C182.744 192.542 182.378 191.661 182.175 192.284L182.473 192.474C181.578 192.596 181.104 193.409 180.277 193.626C180.359 193.653 180.413 193.734 180.481 193.693C180.481 193.978 179.993 194.073 179.871 193.924C179.79 194.019 179.952 194.073 179.952 194.208C179.898 194.425 179.437 194.222 179.505 194.466C179.505 194.506 179.586 194.493 179.627 194.493C179.478 194.466 179.248 194.832 179.153 194.547C178.99 194.832 178.638 194.805 178.543 195.089C178.57 195.089 178.584 195.103 178.611 195.116L178.529 195.333C178.502 195.225 178.516 195.143 178.529 195.076C178.218 194.94 178.231 195.509 177.92 195.211C178.218 195.536 177.757 195.821 177.472 195.794C177.608 195.848 177.445 196.011 177.621 196.092L177.649 196.065L177.621 196.092C177.459 196.227 177.256 196.295 177.134 196.092C177.188 196.742 176.253 196.322 176.551 196.959C175.928 197.217 175.385 197.515 174.911 197.867C175.236 198.152 175.385 197.447 175.697 197.786C175.182 198.03 174.708 198.016 174.396 198.477C174.342 198.626 174.586 198.545 174.681 198.572C174.179 198.843 174.017 199.371 173.515 199.588C173.543 199.615 173.61 199.602 173.678 199.588C173.678 199.588 173.705 199.575 173.719 199.561C173.814 199.534 173.759 199.561 173.678 199.588C173.61 199.656 173.583 199.805 173.434 199.669L173.529 199.629C173.407 199.317 172.824 199.534 172.689 199.453C173.231 199.697 172.499 199.913 173.217 200.171C173.15 200.198 173.028 200.198 172.933 200.103C172.906 200.198 172.946 200.266 173.122 200.293C172.824 200.483 172.729 200.266 172.54 200.51C172.621 200.564 172.689 200.537 172.797 200.591C172.553 200.591 172.309 200.604 172.215 200.862C172.269 200.889 172.309 200.957 172.364 200.889C172.065 201.228 171.496 201.214 171.361 201.729C171.794 201.851 171.374 201.946 171.659 202.176L171.415 202.326L171.334 202.136C171.212 202.325 170.873 202.366 170.873 202.596L171.09 202.529L170.792 202.854V202.569C170.521 202.664 170.426 202.298 170.344 202.624C170.412 202.583 170.222 202.827 170.344 203.044C170.412 203.03 170.48 203.017 170.534 202.976C170.561 202.908 170.575 202.827 170.656 202.786C170.656 202.881 170.615 202.935 170.534 202.976C170.507 203.057 170.48 203.111 170.344 203.044C170.182 203.084 170.019 203.125 170.006 203.328C170.087 203.423 170.372 203.504 170.426 203.572C170.101 203.518 170.073 204.006 169.721 203.965C169.816 203.965 169.979 204.046 170.006 204.087L169.735 204.046C169.748 204.182 169.775 204.209 169.924 204.263C169.816 204.575 169.572 203.952 169.558 204.385C169.586 204.372 169.613 204.385 169.68 204.358C169.599 204.751 169.193 204.954 169.138 205.334C169.423 205.591 169.355 205.09 169.586 205.334C169.315 205.767 168.732 206.106 168.61 206.594V206.486C168.109 206.35 168.705 206.933 168.38 207.068C168.434 207.028 168.678 207.095 168.623 207.095C168.569 207.434 168.244 207.692 167.919 208.125H168.068C168.109 208.342 167.946 208.627 167.946 208.857C167.797 208.871 167.783 209.006 167.621 208.871C168.136 209.724 166.862 209.995 167.336 210.741C167.35 210.673 167.485 210.605 167.472 210.659C167.39 210.809 167.309 210.971 167.241 211.12C167.024 211.039 167.119 211.025 166.97 210.876C166.821 210.903 166.699 211.025 166.672 211.161C166.862 210.971 167.024 211.242 167.133 211.364C167.065 211.337 166.984 211.364 166.916 211.323C167.255 211.662 166.455 211.283 166.659 211.689H166.78C166.699 211.811 166.509 211.906 166.523 212.069C166.767 212.177 166.672 211.947 166.889 211.974C166.835 212.164 166.333 212.299 166.564 212.516C166.645 212.435 166.672 212.313 166.753 212.245C167.024 212.489 166.943 212.502 166.97 212.665L167.052 213.004L166.984 212.909C166.266 213.072 166.781 213.41 166.32 213.708C166.767 213.41 166.564 213.681 166.862 213.681H166.984C166.93 213.681 166.902 213.681 166.862 213.681C166.93 213.776 167.011 213.912 167.106 213.885C166.848 214.02 167.268 214.169 166.902 214.359C166.997 214.372 166.902 214.535 167.133 214.508C167.052 214.711 166.97 214.454 166.848 214.454C166.509 214.765 167.214 215.226 166.753 215.673C166.577 216.08 166.252 216.161 166.103 216.541C166.252 216.663 166.442 216.419 166.442 216.419C166.591 216.622 166.55 216.771 166.469 216.974C166.55 216.934 166.618 216.974 166.74 217.015C166.74 217.164 166.401 217.137 166.564 217.34C166.672 217.3 166.835 217.245 166.93 217.164C166.93 217.137 166.957 217.11 166.957 217.083C166.916 217.083 166.875 217.083 166.848 217.083C166.916 217.069 166.943 217.056 166.957 217.015V217.083H166.997C166.997 217.123 166.957 217.15 166.916 217.178C166.848 217.367 166.686 217.557 166.604 217.747C166.78 217.774 166.848 217.611 166.943 217.53C166.889 217.747 166.835 218.085 166.591 218.18L166.482 218.058C166.482 218.14 166.713 218.072 166.753 218.004C166.943 217.801 166.645 217.76 166.55 217.747L166.496 217.882C165.927 217.801 166.537 217.327 166.496 217.069L166.103 217.205L166.415 216.907C166.306 216.852 166.076 216.825 166.022 216.961C165.805 216.771 166.157 216.785 165.927 216.622C165.886 216.608 165.873 216.622 165.859 216.622L165.981 216.419C165.9 216.459 165.696 216.392 165.751 216.514C165.507 216.161 166.049 215.944 165.737 215.809L165.71 215.836C165.845 215.348 166.008 215.782 166.36 215.429L165.629 215.172L165.927 215.131C165.927 215.131 165.9 214.982 165.778 214.996C165.995 214.82 165.9 215.036 166.103 214.928C165.845 214.671 166.252 214.278 165.791 214.183C166.022 214.115 165.94 214.427 166.13 214.183C165.629 214.074 166.238 213.898 166.035 213.654C165.764 213.695 165.886 213.925 165.669 213.681C166.13 213.587 165.615 213.234 165.724 213.058C165.669 213.058 165.615 213.044 165.534 213.017C165.534 212.963 165.805 212.977 165.927 212.977C166.008 212.841 165.981 212.584 166.103 212.38C165.981 212.38 165.995 211.757 165.94 211.445H165.886C166.252 211.445 166.238 211.147 166.36 210.944C166.144 210.903 166.062 210.93 165.94 211.025L165.981 210.822C165.981 210.822 165.9 210.822 165.845 210.836L165.994 210.768V210.822C166.103 210.795 166.171 210.741 166.252 210.619H165.981C166.062 210.334 166.428 210.144 166.333 209.752C166.577 209.792 166.943 210.199 167.187 209.887C167.065 209.833 166.835 209.765 166.767 209.846C166.794 209.819 166.902 209.765 166.862 209.684L166.604 209.765C166.55 209.589 166.808 209.738 166.821 209.602C166.631 209.548 166.713 209.48 166.564 209.453C166.537 209.48 166.618 209.589 166.523 209.616C166.523 209.467 166.469 209.264 166.347 209.169C166.455 209.209 166.591 209.237 166.659 209.142C166.753 208.884 166.469 208.979 166.415 208.803C166.564 208.776 166.482 208.573 166.753 208.654C166.78 208.573 166.645 208.518 166.591 208.464C166.753 208.369 166.835 207.841 167.079 208.085C167.079 208.085 167.092 208.085 167.106 208.112C167.539 207.773 167.268 207.136 167.566 206.757L167.472 206.716C167.675 206.499 167.77 206.174 168.027 206.066C168.054 205.984 167.946 205.822 167.824 205.808C167.987 205.646 168.081 205.673 168.068 205.32C167.824 205.442 167.959 205.185 167.865 205.469C167.905 205.185 167.797 205.063 168.163 204.9C167.905 204.887 167.973 204.575 168.095 204.494L168.163 204.751C168.258 204.629 168.298 204.507 168.339 204.385L168.014 204.304C167.932 203.613 169.071 203.708 168.718 203.017C168.989 203.003 168.705 203.369 169.003 203.382C169.098 203.139 168.827 202.664 168.867 202.596C168.894 202.19 169.437 202.542 169.531 202.176C169.599 202.285 169.843 202.475 170.087 202.298C170.182 202.054 169.843 201.77 169.68 201.851C169.64 201.905 169.653 201.946 169.68 201.96C169.721 201.932 169.762 201.905 169.775 201.933C169.735 201.973 169.708 201.973 169.68 201.96C169.599 202.014 169.504 202.082 169.45 201.919L169.572 201.946C169.545 201.77 169.748 201.472 169.545 201.445C169.748 201.336 169.748 201.472 169.721 201.634C169.762 201.255 170.006 201.187 170.114 200.848C170.141 200.93 170.222 201.052 170.25 200.997C170.426 200.496 170.561 200.943 170.792 200.686C170.765 200.428 170.412 200.496 170.724 200.306C170.751 200.062 170.494 200.09 170.372 200.103C170.737 199.981 170.615 199.548 170.683 199.371L170.507 199.453C170.615 199.412 170.656 199.344 170.71 199.276L170.832 199.493C170.859 199.385 170.914 199.331 170.832 199.263C171.008 199.263 171.09 199.561 171.374 199.534C171.361 199.358 171.713 199.304 171.51 199.073C171.334 199.453 171.293 198.843 171.036 199.073C171.103 199.046 171.158 198.978 171.185 198.87C171.171 198.843 171.13 198.843 171.09 198.856C171.036 198.884 171.049 198.856 171.09 198.856C171.13 198.382 171.483 198.938 171.727 198.612C171.564 198.545 171.537 198.328 171.605 198.301C171.496 198.436 171.781 198.545 171.971 198.518C172.038 198.233 172.228 198.369 172.296 198.247L172.242 198.409C172.404 198.477 172.472 198.369 172.635 198.274C172.54 198.179 172.458 198.328 172.458 198.247C172.824 198.301 172.526 197.705 172.865 197.623C172.865 197.447 172.635 197.393 172.648 197.257C173.028 197.176 172.702 196.837 173.068 196.729C173.177 196.959 173.122 196.932 173.448 196.919L172.96 197.203L173.448 197.176C173.339 197.298 173.109 197.325 173.068 197.42C173.312 197.42 173.272 197.406 173.353 197.583C173.244 197.19 173.8 197.406 173.8 197.054L173.38 196.661C173.461 196.2 174.071 196.363 174.328 195.916L174.288 196.106C174.491 196.227 174.532 195.916 174.708 195.862C174.559 195.74 174.586 195.618 174.559 195.482C174.654 195.591 174.816 195.211 175.114 195.469V195.13C175.331 194.778 175.819 195.225 176.063 194.913C175.833 194.832 175.873 194.615 175.589 194.683C175.684 194.588 175.751 194.493 175.833 194.588C175.806 194.452 176.28 194.547 176.239 194.33C176.199 194.33 176.158 194.33 176.144 194.398C176.171 194.344 176.144 194.317 176.226 194.29C176.226 194.303 176.226 194.317 176.226 194.33C176.321 194.357 176.47 194.493 176.564 194.398C176.551 194.357 176.497 194.33 176.497 194.33C176.564 194.398 176.754 194.276 176.795 194.52C176.7 193.788 177.676 193.856 177.608 193.233L177.554 193.26L177.608 193.165C177.608 193.165 177.608 193.206 177.608 193.233C177.865 193.111 178.177 192.948 178.394 192.799C178.34 192.758 178.34 192.718 178.313 192.772C178.489 192.42 178.814 193.084 179.017 192.677C178.99 192.311 178.746 192.677 178.773 192.501C178.435 191.959 179.22 192.284 179.207 191.823H179.126C179.166 191.539 179.668 191.728 179.925 191.498C179.925 191.498 179.885 191.457 179.871 191.417C180.25 191.552 180.67 191.39 180.982 191.281C180.765 191.132 180.792 191.254 180.698 191.01C180.833 190.956 180.887 191.363 181.172 191.268C181.172 191.105 181.28 190.888 181.158 190.644L180.928 190.78C180.847 190.414 181.226 190.59 181.321 190.468L181.226 190.346C181.605 190.157 181.822 190.468 182.188 190.211L182.215 190.333C182.622 190.522 182.269 190.048 182.635 190.157L182.486 189.791C182.676 189.791 183.164 189.804 183.448 189.723C183.164 189.56 182.784 189.615 182.527 189.587C182.662 189.493 183.015 189.316 183.177 189.438C183.096 189.438 182.988 189.398 182.961 189.479C183.286 189.642 183.584 189.628 183.855 189.465C183.421 188.842 184.478 188.883 184.383 188.259C185.007 188.205 185.318 187.609 185.915 187.324C185.982 187.948 186.091 187.243 186.335 187.799C186.484 187.758 186.525 187.731 186.525 187.69C186.497 187.582 186.064 187.446 186.226 187.189C186.159 187.501 186.687 187.297 186.525 187.69L186.768 187.162C186.782 186.958 186.579 187.108 186.525 186.986C186.796 186.782 186.525 186.701 186.66 186.444C186.714 186.66 186.904 186.66 187.039 186.498L186.931 186.864C187.5 186.931 187.067 186.227 187.622 186.294L187.405 186.2C187.676 186.186 188.205 185.793 188.625 186.105C188.625 186.023 188.611 185.847 188.489 185.861C188.977 185.536 189.872 185.739 190.129 185.265L190.021 185.156C190.129 185.156 190.305 185.319 190.36 185.129C190.332 185.075 190.251 185.021 190.292 184.994C190.36 185.007 190.658 185.088 190.752 184.953L190.576 184.858C190.983 184.438 191.525 184.817 191.986 184.695C191.782 184.316 192.108 183.991 192.27 183.828L192.23 183.774C192.772 183.422 193.354 183.571 193.964 183.435C194.059 182.852 194.953 182.649 195.319 182.121C195.279 182.229 195.509 182.405 195.617 182.378C195.685 182.229 196.105 182.432 195.875 182.107L195.834 182.134C195.712 181.755 196.01 181.687 196.187 181.565L196.498 181.985C196.566 181.05 197.921 181.362 197.772 180.63C197.962 180.657 198.097 180.549 198.287 180.576L198.111 180.359C198.368 180.074 198.49 179.925 198.897 179.681L198.693 179.587C198.883 179.41 199.452 179.993 199.656 179.844L199.439 179.478C199.805 179.18 199.886 178.597 200.482 178.557C200.442 178.516 200.347 178.448 200.279 178.475C200.36 178.408 200.442 178.218 200.564 178.096L169.437 109.175H166.523L166.767 109.256L166.699 109.432C166.672 109.365 166.55 109.283 166.469 109.31C166.347 109.595 166.713 109.974 166.862 109.974L166.631 110.638C166.753 110.625 166.794 110.516 166.862 110.422C166.564 110.774 167.187 110.476 166.916 110.801C166.848 110.76 166.74 110.828 166.672 110.842C166.862 110.991 166.862 111.357 166.78 111.628L166.984 111.573C167.038 112.061 166.875 112.603 166.875 113.145C166.78 112.942 166.415 112.983 166.388 113.145L166.699 113.213C166.496 113.308 166.577 113.037 166.333 113.254C166.36 113.457 166.686 113.403 166.794 113.281L166.672 113.525C166.767 113.538 166.821 113.484 166.943 113.471C166.74 113.565 167.241 113.918 166.889 114.04H166.984C166.957 114.609 166.835 114.853 166.794 115.286C166.523 115.286 166.577 115.449 166.347 115.571C166.401 115.896 166.577 116.276 166.509 116.669C166.347 116.926 166.266 116.723 166.089 116.831C166.333 116.872 166.266 117.265 166.469 117.089C166.374 117.549 166.374 117.685 166.076 118.254C165.981 118.173 165.954 118.105 165.859 118.119C165.805 118.213 165.927 118.376 166.049 118.376L166.076 118.349C165.602 118.945 166.55 120.002 165.94 120.436L165.967 120.409L165.588 120.897C165.588 121.154 165.805 120.788 165.913 121.005C165.371 121.506 165.764 121.94 165.398 122.36C166.049 122.916 164.992 123.647 165.317 124.284L165.154 124.203C164.951 124.284 165.209 124.393 165.222 124.488C165.1 124.433 165.114 124.298 164.992 124.352C164.748 124.867 164.612 125.436 164.517 126.032C164.423 126.615 164.395 127.252 164.233 127.808C164.111 128.228 163.311 127.699 163.488 128.35H163.84C163.501 128.661 163.325 129.054 163.176 129.461C163 129.854 162.81 130.26 162.485 130.559C162.58 130.559 162.661 130.586 162.702 130.518C162.837 130.775 162.417 131.114 162.254 131.033C162.214 131.155 162.39 131.141 162.444 131.25C162.485 131.48 161.983 131.507 162.146 131.697C162.173 131.724 162.241 131.697 162.268 131.67C162.105 131.724 162.024 132.158 161.848 131.927C161.807 132.266 161.441 132.388 161.455 132.686C161.482 132.686 161.496 132.686 161.536 132.686V132.93C161.482 132.835 161.455 132.754 161.455 132.686C161.116 132.686 161.306 133.228 160.913 133.052C161.306 133.255 160.953 133.716 160.655 133.77C160.804 133.784 160.682 133.987 160.872 134.028V134.001V134.028C160.737 134.217 160.561 134.339 160.384 134.19C160.601 134.827 159.571 134.651 160.005 135.234C159.449 135.681 158.921 136.06 158.487 136.48C158.853 136.724 158.921 135.979 159.287 136.264C158.799 136.616 158.297 136.657 158.04 137.172C157.999 137.321 158.243 137.226 158.325 137.226C157.85 137.578 157.647 138.107 157.146 138.35C157.173 138.378 157.254 138.35 157.308 138.35C157.308 138.35 157.335 138.337 157.349 138.323C157.457 138.283 157.39 138.323 157.308 138.35C157.227 138.418 157.2 138.567 157.064 138.432L157.173 138.391C157.051 138.079 156.454 138.296 156.333 138.201C156.875 138.445 156.116 138.676 156.834 138.947C156.766 138.974 156.644 138.974 156.549 138.865C156.509 138.96 156.549 139.042 156.726 139.069C156.414 139.272 156.346 139.042 156.116 139.272C156.183 139.34 156.265 139.313 156.373 139.367C156.116 139.367 155.872 139.353 155.736 139.597C155.791 139.624 155.818 139.706 155.885 139.638C155.533 139.963 154.964 139.868 154.747 140.356C155.154 140.546 154.72 140.586 154.964 140.857L154.693 140.979L154.652 140.776C154.476 140.952 154.137 140.898 154.069 141.128H154.3L153.92 141.372L154.015 141.101C153.704 141.128 153.717 140.749 153.555 141.034C153.622 141.02 153.378 141.196 153.433 141.44C153.27 141.44 153.094 141.427 153.026 141.616C153.067 141.738 153.324 141.901 153.351 141.969C153.067 141.82 152.877 142.294 152.552 142.131C152.633 142.158 152.769 142.307 152.782 142.348L152.538 142.226C152.498 142.362 152.511 142.402 152.633 142.497C152.403 142.741 152.416 142.077 152.24 142.47C152.281 142.47 152.294 142.511 152.362 142.497C152.118 142.822 151.657 142.863 151.441 143.175C151.576 143.527 151.752 143.039 151.847 143.364C151.386 143.649 150.722 143.703 150.343 144.056L150.397 143.974C150.045 143.595 150.235 144.394 149.882 144.354C149.95 144.354 150.113 144.543 150.072 144.503C149.828 144.774 149.408 144.814 148.879 144.977L149.001 145.058C148.893 145.262 148.568 145.397 148.405 145.56C148.283 145.478 148.175 145.56 148.148 145.356C147.931 146.359 146.833 145.695 146.576 146.508C146.644 146.481 146.793 146.535 146.738 146.562L146.21 146.684C146.142 146.468 146.21 146.535 146.223 146.332C146.101 146.237 145.925 146.21 145.817 146.278C146.088 146.305 145.979 146.603 145.939 146.766C145.925 146.698 145.857 146.644 145.83 146.576C145.763 147.064 145.587 146.183 145.383 146.59L145.451 146.684C145.302 146.684 145.126 146.603 145.004 146.698C145.058 146.969 145.18 146.739 145.288 146.928C145.085 147.01 144.719 146.671 144.651 146.983C144.76 147.023 144.882 146.955 144.99 146.983C144.936 147.362 144.882 147.294 144.76 147.403L144.489 147.66L144.543 147.552C144.028 147.023 143.987 147.647 143.5 147.362C143.974 147.619 143.649 147.565 143.784 147.836L143.852 147.931C143.825 147.89 143.798 147.863 143.784 147.836C143.73 147.945 143.635 148.08 143.703 148.148C143.459 147.985 143.513 148.433 143.161 148.202C143.188 148.297 142.998 148.283 143.12 148.487C142.89 148.487 143.12 148.311 143.052 148.202C142.632 148.04 142.429 148.826 141.819 148.568C141.359 148.527 141.196 148.243 140.789 148.202C140.708 148.392 140.993 148.5 140.993 148.5C140.83 148.704 140.667 148.731 140.451 148.676C140.518 148.744 140.491 148.826 140.451 148.947C140.288 148.947 140.261 148.636 140.085 148.826C140.152 148.92 140.234 149.069 140.342 149.164C140.369 149.164 140.41 149.164 140.437 149.164C140.423 149.124 140.41 149.083 140.41 149.069C140.437 149.137 140.464 149.164 140.491 149.164H140.423L140.437 149.219C140.396 149.219 140.356 149.191 140.315 149.164C140.112 149.124 139.881 148.988 139.665 148.961C139.665 149.137 139.841 149.178 139.936 149.273C139.705 149.246 139.339 149.259 139.217 149.015L139.326 148.893C139.245 148.893 139.326 149.124 139.407 149.151C139.637 149.313 139.651 149.002 139.638 148.907L139.488 148.88C139.488 148.311 140.044 148.839 140.315 148.744L140.098 148.378L140.464 148.636C140.491 148.514 140.464 148.283 140.329 148.27C140.464 148.012 140.532 148.351 140.627 148.094C140.627 148.053 140.627 148.04 140.6 148.026L140.816 148.08C140.762 148.012 140.762 147.796 140.667 147.89C140.925 147.565 141.277 148.012 141.318 147.674H141.277C141.779 147.647 141.413 147.931 141.86 148.148V147.376L141.995 147.647C142.036 147.619 142.131 147.565 142.063 147.457C142.307 147.592 142.063 147.592 142.239 147.741C142.375 147.43 142.903 147.633 142.781 147.172C142.944 147.348 142.632 147.416 142.93 147.47C142.809 146.969 143.229 147.443 143.351 147.145C143.188 146.928 143.052 147.145 143.161 146.833C143.445 147.199 143.513 146.59 143.703 146.603C143.676 146.549 143.662 146.495 143.649 146.413C143.689 146.386 143.811 146.63 143.879 146.739C143.811 146.644 143.757 146.603 143.703 146.603C143.852 146.928 144.123 146.603 144.462 146.59C144.394 146.495 144.895 146.156 145.085 145.912L145.058 145.858C145.261 146.156 145.492 145.966 145.722 145.939C145.614 145.749 145.546 145.695 145.397 145.655L145.573 145.573C145.573 145.573 145.505 145.519 145.478 145.478L145.627 145.56L145.586 145.587C145.681 145.668 145.763 145.695 145.898 145.668L145.736 145.451C145.979 145.343 146.372 145.506 146.576 145.167C146.711 145.37 146.671 145.912 147.077 145.871C147.023 145.749 146.928 145.533 146.806 145.533C146.847 145.533 146.955 145.573 146.982 145.492L146.752 145.37C146.833 145.207 146.915 145.492 147.009 145.411C146.915 145.248 147.009 145.248 146.928 145.126C146.887 145.126 146.874 145.248 146.793 145.207C146.901 145.099 146.982 144.923 146.955 144.76C146.996 144.855 147.091 144.991 147.185 144.95C147.416 144.828 147.145 144.706 147.226 144.543C147.348 144.625 147.429 144.421 147.579 144.665C147.646 144.625 147.579 144.503 147.579 144.421C147.768 144.462 148.148 144.123 148.175 144.462C148.175 144.462 148.175 144.476 148.175 144.503C148.73 144.53 148.866 143.839 149.313 143.703L149.259 143.622C149.543 143.554 149.787 143.337 150.058 143.391C150.126 143.351 150.113 143.148 150.018 143.066C150.221 143.012 150.316 143.093 150.451 142.782C150.194 142.782 150.411 142.619 150.207 142.809C150.37 142.578 150.316 142.416 150.695 142.456C150.465 142.321 150.655 142.091 150.804 142.063L150.763 142.321C150.899 142.267 150.98 142.172 151.061 142.077L150.804 141.86C150.966 141.223 151.996 141.792 151.874 141.007C152.132 141.088 151.766 141.318 152.023 141.44C152.186 141.237 152.064 140.708 152.118 140.668C152.24 140.302 152.674 140.817 152.85 140.478C152.891 140.6 153.067 140.857 153.351 140.749C153.514 140.546 153.243 140.18 153.067 140.221C153.013 140.248 153.026 140.302 153.053 140.329C153.107 140.315 153.148 140.302 153.148 140.329C153.107 140.356 153.067 140.342 153.053 140.329C152.958 140.356 152.85 140.383 152.836 140.234L152.945 140.302C152.945 140.126 153.216 139.909 153.026 139.828C153.243 139.787 153.216 139.909 153.162 140.044C153.284 139.706 153.527 139.706 153.677 139.394C153.677 139.475 153.744 139.611 153.785 139.57C154.015 139.123 154.083 139.57 154.354 139.38C154.354 139.123 154.002 139.136 154.341 139.001C154.395 138.771 154.151 138.757 154.029 138.743C154.395 138.689 154.3 138.242 154.395 138.093L154.219 138.134C154.327 138.107 154.381 138.052 154.422 137.998L154.53 138.215C154.571 138.12 154.612 138.066 154.544 137.998C154.72 138.039 154.774 138.31 155.059 138.323C155.059 138.161 155.411 138.134 155.208 137.89C155.032 138.256 155.005 137.659 154.761 137.863C154.828 137.849 154.883 137.781 154.91 137.686C154.896 137.659 154.855 137.659 154.828 137.659C154.774 137.673 154.801 137.659 154.828 137.659C154.855 137.199 155.194 137.768 155.438 137.47C155.276 137.388 155.248 137.185 155.316 137.158C155.221 137.28 155.492 137.402 155.682 137.388C155.736 137.117 155.926 137.253 156.007 137.144L155.967 137.293C156.129 137.361 156.197 137.253 156.346 137.158C156.251 137.063 156.17 137.212 156.17 137.131C156.536 137.185 156.211 136.602 156.536 136.535C156.536 136.372 156.292 136.318 156.292 136.196C156.644 136.101 156.292 135.789 156.631 135.667C156.766 135.884 156.712 135.857 157.024 135.816L156.59 136.128L157.051 136.074C156.956 136.196 156.739 136.25 156.712 136.345C156.956 136.345 156.902 136.318 157.01 136.494C156.861 136.101 157.43 136.277 157.39 135.938L156.929 135.6C156.929 135.152 157.552 135.261 157.728 134.787V134.963C157.945 135.044 157.918 134.746 158.094 134.678C157.932 134.583 157.918 134.461 157.864 134.339C157.972 134.434 158.04 134.041 158.392 134.217L158.297 133.892C158.419 133.513 159.002 133.824 159.151 133.472C158.907 133.459 158.894 133.242 158.623 133.364C158.69 133.255 158.718 133.147 158.84 133.215C158.772 133.093 159.246 133.066 159.151 132.876C159.111 132.876 159.07 132.889 159.083 132.957C159.083 132.903 159.07 132.876 159.138 132.835C159.138 132.835 159.138 132.862 159.151 132.862C159.246 132.862 159.436 132.957 159.504 132.835C159.476 132.808 159.422 132.781 159.422 132.781C159.504 132.835 159.639 132.659 159.761 132.876C159.436 132.225 160.344 131.954 160.059 131.412L160.018 131.453V131.358C160.018 131.358 160.046 131.399 160.059 131.412C160.249 131.209 160.466 130.952 160.601 130.748C160.547 130.748 160.52 130.708 160.506 130.748C160.506 130.355 161.089 130.816 161.089 130.369C160.899 130.044 160.845 130.477 160.791 130.315C160.249 129.976 161.075 129.935 160.859 129.529L160.791 129.569C160.682 129.298 161.225 129.244 161.319 128.932C161.319 128.932 161.265 128.932 161.238 128.892C161.645 128.838 161.902 128.485 162.105 128.228C161.834 128.228 161.929 128.309 161.726 128.146C161.807 128.024 162.078 128.35 162.254 128.119C162.16 127.984 162.132 127.74 161.902 127.618L161.78 127.862C161.509 127.604 161.929 127.55 161.916 127.401L161.767 127.36C161.97 127.008 162.322 127.144 162.471 126.737L162.566 126.818C163.013 126.737 162.431 126.561 162.783 126.425L162.444 126.222C162.58 126.114 162.973 125.829 163.135 125.585C162.81 125.639 162.566 125.911 162.336 126.046C162.39 125.897 162.539 125.558 162.742 125.545C162.688 125.585 162.566 125.639 162.607 125.707C162.959 125.626 163.176 125.436 163.271 125.138C162.539 124.962 163.366 124.311 162.851 123.918C163.257 123.471 163.027 122.848 163.244 122.252C163.745 122.618 163.311 122.076 163.881 122.252C163.948 122.116 163.948 122.062 163.921 122.035C163.826 121.981 163.447 122.211 163.339 121.926C163.528 122.184 163.718 121.669 163.921 122.035L163.664 121.506C163.515 121.357 163.501 121.615 163.379 121.574C163.406 121.249 163.162 121.384 163.054 121.141C163.257 121.235 163.379 121.1 163.339 120.897L163.555 121.208C163.962 120.829 163.149 120.72 163.555 120.341L163.339 120.449C163.501 120.246 163.515 119.609 164.016 119.474C163.948 119.419 163.799 119.338 163.745 119.433C163.759 118.877 164.45 118.281 164.219 117.807L164.07 117.834C164.124 117.739 164.368 117.685 164.233 117.536C164.179 117.536 164.084 117.563 164.084 117.509C164.138 117.455 164.368 117.265 164.301 117.116L164.124 117.211C163.989 116.655 164.612 116.425 164.761 115.978C164.328 115.937 164.246 115.503 164.179 115.286H164.111C164.097 114.663 164.531 114.243 164.721 113.66C164.287 113.281 164.545 112.414 164.287 111.831C164.368 111.926 164.626 111.817 164.667 111.709C164.585 111.573 164.965 111.316 164.572 111.343V111.397C164.192 111.302 164.301 111.018 164.274 110.801L164.789 110.747C164.179 110.313 164.653 109.608 164.545 109.188H75.4863C75.6896 109.852 75.8251 110.571 76.069 111.262C76.1368 111.18 76.1775 110.991 76.3536 111.153C76.6382 112.278 77.3158 113.403 77.8985 114.378L77.7765 114.88C77.8171 114.975 77.9662 115.002 77.9798 114.88C78.2372 115.246 77.8171 114.961 77.79 115.192C77.8578 115.435 78.061 115.435 78.0881 115.259C78.1288 116.059 78.3185 117.482 78.847 118.159L78.8877 117.983C79.1858 118.552 78.5489 118.823 78.9554 119.311V119.189C79.4839 120.463 79.5653 121.994 80.1886 122.943C79.8092 123.214 80.6222 124.257 80.0395 124.447C80.4189 125.192 80.5274 124.948 80.8119 126.046C80.8661 126.344 80.5002 126.52 80.4596 126.886H80.7577L80.8119 126.778V126.873H80.7577L80.4596 127.388L80.8255 127.645L80.7577 127.997C80.7306 127.862 80.6087 127.713 80.5274 127.726C80.4325 128.268 80.7306 129.041 80.8932 129.068C80.8119 129.502 80.69 129.922 80.5816 130.355C80.7035 130.342 80.7578 130.125 80.8526 129.949C80.5003 130.626 81.1643 130.098 80.8391 130.721C80.7713 130.626 80.6629 130.748 80.5951 130.762C80.7442 131.087 80.6629 131.819 80.5003 132.334L80.7306 132.266C80.6087 133.242 80.2292 134.272 79.904 135.301C79.9311 134.895 79.5652 134.881 79.4297 135.166L79.6872 135.383C79.4297 135.518 79.6872 135.03 79.3213 135.356C79.2265 135.749 79.5788 135.722 79.755 135.532L79.4975 135.965C79.5788 136.02 79.6601 135.925 79.782 135.938C79.5381 136.06 79.782 136.86 79.3484 137.009L79.4297 137.077C79.0231 138.093 78.6844 138.486 78.2779 139.258C78.0204 139.15 77.912 139.475 77.6003 139.597C77.3835 140.207 77.1802 140.912 76.7466 141.549C76.3265 141.914 76.462 141.549 76.191 141.657C76.3807 141.833 75.9199 142.456 76.2994 142.226C75.7302 142.958 75.5676 143.161 74.6868 143.934C74.6868 143.771 74.741 143.635 74.6326 143.635C74.47 143.771 74.4158 144.069 74.5242 144.123L74.5784 144.096C73.4943 144.855 73.1555 146.847 72.0308 147.213L72.085 147.186L71.1364 147.741C70.8111 148.107 71.4752 147.674 71.3261 148.04C70.2014 148.527 70.0388 149.327 69.1444 149.747C69.0766 150.79 67.1388 151.387 66.6645 152.349L66.5968 152.173C66.2986 152.2 66.4206 152.444 66.2987 152.593C66.2309 152.471 66.4206 152.295 66.2309 152.322C64.4286 153.487 62.8973 155.208 61.2847 156.645C60.6885 157.159 60.3768 156.211 59.8483 157.146L60.2684 157.227C58.7778 157.905 57.7343 159.246 56.3521 159.992C56.4741 159.992 56.5418 160.059 56.6502 159.965C56.5553 160.344 55.7559 160.764 55.6204 160.629C55.4577 160.805 55.6881 160.791 55.6474 160.967C55.4983 161.279 54.8479 161.293 54.875 161.577C54.875 161.631 54.997 161.577 55.0512 161.55C54.8208 161.604 54.3465 162.241 54.3059 161.902C53.9942 162.404 53.425 162.58 53.2218 163.027C53.2489 163.027 53.2895 163.027 53.3166 163.027L53.1405 163.379C53.1405 163.244 53.1811 163.122 53.2218 163.014C52.8017 163.014 52.6391 163.813 52.2732 163.596C52.6255 163.867 51.8667 164.572 51.4737 164.707C51.6499 164.707 51.3788 165.033 51.6092 165.046L51.6498 164.992C51.7582 164.843 51.8666 164.694 51.9886 164.545C51.9073 164.68 51.7718 164.843 51.6498 164.992L51.6092 165.046C51.3382 165.358 51.04 165.588 50.9045 165.385C50.8367 166.293 49.6307 166.334 49.9153 167.079C49.0209 167.933 48.262 168.8 47.6116 169.708C48.0046 169.884 48.2892 168.678 48.655 168.976C47.9775 169.708 47.3948 170.074 46.9883 170.927L47.0018 171.131ZM164.314 110.747L164.395 110.543L164.423 110.638L164.328 110.747H164.314ZM162.322 126.534C162.309 126.656 162.376 126.818 162.309 126.859C162.187 126.751 162.16 126.575 162.322 126.534ZM159.653 131.67L159.896 131.859C159.802 131.914 159.49 131.765 159.653 131.67ZM151.495 141.305L151.739 141.237L151.576 141.305H151.508H151.495ZM149.896 142.917C150.031 142.863 149.95 142.999 150.058 143.107L149.896 142.917ZM148.256 144.543L148.351 144.367C148.419 144.448 148.324 144.476 148.256 144.543ZM143.364 146.617C143.513 146.657 143.54 146.671 143.459 146.806C143.269 146.833 143.405 146.657 143.364 146.617ZM142.131 147.294C142.429 146.861 142.131 147.552 142.537 147.362C142.443 147.43 142.348 147.497 142.239 147.552C142.266 147.43 142.28 147.281 142.131 147.294ZM196.39 181.646L196.607 181.606L196.539 181.674L196.39 181.646ZM182.256 190.021C182.161 190.102 182.12 190.278 182.039 190.278C182.012 190.116 182.093 189.94 182.256 190.021ZM177.201 193.368L177.364 193.639C177.256 193.653 177.012 193.409 177.201 193.368ZM168.325 203.504L168.529 203.328L168.393 203.464L168.325 203.504ZM167.499 205.781C167.594 205.659 167.594 205.822 167.729 205.862L167.499 205.781ZM166.984 207.963C167.092 207.99 167.024 208.071 167.024 208.166L166.984 207.963ZM203.098 214.806C203.03 214.901 203.043 215.064 202.976 215.091C202.894 214.942 202.921 214.765 203.098 214.806ZM199.547 218.885L199.778 219.088C199.683 219.129 199.385 218.953 199.547 218.885ZM194.262 229.577L194.411 229.387L194.316 229.523L194.262 229.563V229.577ZM193.978 231.691C194.045 231.569 194.073 231.718 194.222 231.731L193.978 231.691ZM193.883 233.656C193.991 233.656 193.951 233.751 193.964 233.832L193.883 233.656ZM169.626 205.28L169.396 205.239L169.558 205.09L169.64 205.28H169.626ZM167.052 218.18C167.052 218.18 167.079 218.262 166.997 218.302L167.052 218.18ZM167.052 216.73H166.97C167.119 216.676 166.726 216.459 166.889 216.364C166.916 216.459 167.106 216.595 167.052 216.73ZM167.106 218.113C167.106 218.113 167.079 218.113 167.065 218.113L167.092 218.058V218.099L167.106 218.113ZM166.821 219.251L167.133 219.129L167.065 219.305C166.984 219.359 166.794 219.373 166.821 219.264V219.251ZM166.591 218.641C166.509 218.614 166.442 218.655 166.374 218.682C166.509 218.533 166.767 218.356 167.065 218.397C166.781 218.56 166.902 218.573 166.564 218.749C166.537 218.858 166.699 218.912 166.808 218.885C166.726 218.939 166.902 219.034 166.713 219.129C166.442 219.034 166.415 218.858 166.591 218.641ZM165.642 213.519C165.574 213.708 165.493 213.505 165.425 213.505C165.534 213.397 165.561 213.37 165.642 213.519ZM165.696 214.63L165.764 214.982C165.656 214.915 165.52 214.833 165.493 214.982C165.195 214.522 165.724 215.091 165.696 214.616V214.63ZM153.487 141.643C153.555 141.643 153.636 141.643 153.69 141.643C153.731 141.576 153.771 141.508 153.853 141.481C153.826 141.576 153.758 141.616 153.69 141.643C153.636 141.711 153.595 141.765 153.487 141.643ZM152.01 143.432L151.82 143.297L152.037 143.229V143.446L152.01 143.432ZM140.911 149.259C141.02 149.381 141.142 148.934 141.277 149.069C141.182 149.124 141.101 149.354 140.938 149.34L140.898 149.273L140.911 149.259ZM139.488 149.611H139.556L139.516 149.652C139.516 149.639 139.516 149.625 139.502 149.611H139.488ZM139.299 149.557L139.434 149.598C139.434 149.598 139.353 149.625 139.299 149.557ZM138.418 149.354C138.513 149.069 138.675 149.029 138.906 149.191C138.933 149.11 138.879 149.042 138.852 148.988C139.014 149.11 139.217 149.354 139.204 149.652C139.014 149.381 139.014 149.517 138.797 149.178C138.689 149.178 138.635 149.327 138.675 149.435C138.621 149.368 138.526 149.544 138.431 149.354H138.418ZM138.296 149.476L138.431 149.774L138.255 149.733C138.201 149.652 138.188 149.462 138.296 149.476Z" fill="#15172F"/>
<path d="M187.975 235.349C187.975 235.349 182.148 186.849 175.061 168.65C175.061 168.65 219.481 145.721 240.946 118.429L230.458 18.5574C230.458 18.5574 229.238 4.05764 226.013 3.84082C226.013 3.84082 224.617 3.81372 224.915 8.2043C225.2 12.5949 224.78 23.3409 224.509 25.9428C224.238 28.5446 223.425 29.71 223.425 29.71C223.425 29.71 220.105 27.2843 217.72 26.1596C215.335 25.0348 212.936 23.5442 210.795 25.3059C208.64 27.0675 212.936 29.6287 213.681 30.2656C214.427 30.9025 223.086 37.2851 223.967 42.5294C224.848 47.7737 223.601 56.067 222.517 63.8725C221.433 71.6779 218.777 92.628 217.598 97.8859C216.419 103.144 215.416 109.296 208.911 112.779C202.407 116.261 152.661 137.618 152.661 137.618L146.332 140.193L142.89 130.802L142.66 128.905C142.66 128.905 146.766 127.455 148.473 122.21C150.181 116.952 149.015 106.721 147.755 104.119C146.495 101.518 147.769 99.2816 147.769 99.2816C147.769 99.2816 150.018 94.9724 149.91 86.6384C149.801 78.318 148.297 69.6995 142.524 65.458C136.752 61.2164 127.726 60.7557 122.848 65.7832C117.97 70.8107 118.566 76.4344 115.395 77.4236C112.224 78.4128 107.738 78.4806 103.687 79.6731C99.6349 80.8656 92.5611 82.5189 89.2682 91.9098C85.9753 101.301 88.9159 109.879 90.3794 113.158C91.8429 116.437 97.1279 121.885 97.155 124.541C97.1685 127.197 97.1821 128.769 91.7617 134.23C86.3412 139.691 85.8804 146.155 86.5444 151.521C87.2084 156.888 90.8131 162.945 90.8131 162.945C90.8131 162.945 85.4739 166.428 80.3109 171.198C75.1479 175.968 69.7817 180.995 65.364 186.497C60.9463 191.999 58.5342 195.21 58.5342 195.21L69.8629 221.784L92.4798 204.398L84.7422 235.376H187.975V235.349Z" fill="white"/>
<path d="M279.172 246.001L299.364 235.35H76.0146V246.001H239.658" stroke="#15172F" stroke-width="1.07" stroke-linecap="round" stroke-linejoin="round"/>
<path d="M147.037 140.085C147.037 140.085 204.182 115.151 208.912 112.793C213.641 110.435 216.555 104.784 217.463 98.7808C218.37 92.7776 224.563 51.6499 224.374 47.2728C224.184 42.8958 224.374 39.9959 218.913 34.9006C213.451 29.8054 210.809 28.2606 210.267 26.8919C209.725 25.5232 211.717 24.3443 213.546 24.5204C215.376 24.6966 220.091 27.2442 222.287 29.1549C224.482 31.0656 235.757 27.0681 239.673 33.9791" stroke="#15172F" stroke-width="1.07" stroke-linecap="round" stroke-linejoin="round"/>
<path d="M231.204 24.5061C231.204 24.5061 229.469 8.86806 228.019 6.04942C226.569 3.23078 225.011 1.86212 224.929 6.78119C224.835 11.7003 225.322 20.8744 224.076 29.7097" stroke="#15172F" stroke-width="1.07" stroke-linecap="round" stroke-linejoin="round"/>
<path d="M236.841 24.0728C236.841 24.0728 235.106 11.4296 232.843 5.41287C230.566 -0.590297 227.165 -0.685152 227.639 4.31523" stroke="#15172F" stroke-width="1.07" stroke-linecap="round" stroke-linejoin="round"/>
<path d="M243.034 26.1592C243.034 26.1592 237.6 1.88901 232.22 3.97589" stroke="#15172F" stroke-width="1.07" stroke-linecap="round" stroke-linejoin="round"/>
<path d="M240.973 18.4349C240.743 7.70235 241.664 8.14956 243.02 8.24441C244.388 8.33927 245.296 16.0905 246.299 23.7063C247.302 31.3356 248.21 43.4503 244.754 48.5455C244.754 48.5455 245.933 105.42 242.938 123.294" stroke="#15172F" stroke-width="1.07" stroke-linecap="round" stroke-linejoin="round"/>
<path d="M161.008 133.973L177.974 168.65" stroke="#15172F" stroke-width="1.07" stroke-linecap="round" stroke-linejoin="round"/>
<path d="M152.715 161.509C152.715 161.509 154.219 169.423 151.075 170.385C147.931 171.347 134.976 168.88 118.728 149.502L115.856 111.83C115.856 111.83 110.394 110.597 108.484 105.827C106.573 101.043 111.208 100.366 114.216 102.141" stroke="#15172F" stroke-width="1.07" stroke-linecap="round" stroke-linejoin="round"/>
<path d="M139.34 85.4873C139.34 85.4873 140.153 90.4064 132.645 91.4905C125.138 92.5881 112.983 87.8723 114.216 102.142" stroke="#15172F" stroke-width="1.07" stroke-linecap="round" stroke-linejoin="round"/>
<path d="M138.445 88.6719C138.445 88.6719 148.216 96.5451 149.178 112.522C150.14 128.485 141.535 132.862 128.295 128.35" stroke="#15172F" stroke-width="1.07" stroke-linecap="round" stroke-linejoin="round"/>
<path d="M150.398 151.318L142.253 129.067" stroke="#15172F" stroke-width="1.07" stroke-linecap="round" stroke-linejoin="round"/>
<path d="M134.705 100.502C134.705 100.502 138.797 105.001 140.166 111.695" stroke="#15172F" stroke-width="1.07" stroke-linecap="round" stroke-linejoin="round"/>
<path d="M112.996 151.318C112.996 151.318 85.3379 159.015 59.3062 194.14" stroke="#15172F" stroke-width="1.07" stroke-linecap="round" stroke-linejoin="round"/>
<path d="M91.1788 162.674C91.1788 162.674 84.1457 154.679 86.9915 142.266C89.5255 131.168 103.727 130.626 93.9026 118.795C84.078 106.965 86.1649 85.4867 99.6483 80.8658C113.741 76.028 115.124 82.1261 119.569 70.5805C125.572 54.956 159.964 58.2489 147.05 101.911" stroke="#15172F" stroke-width="1.07" stroke-linecap="round" stroke-linejoin="round"/>
<path d="M84.7422 235.348L94.5803 160.383L96.6672 159.082V235.348H84.7422Z" fill="#15172F"/>
<path d="M146.332 140.193L128.295 129.067C128.295 129.067 138.987 130.517 142.714 129.298L146.332 140.193Z" fill="#15172F"/>
<path d="M89.0104 109.337H19.1H14.0996L71.0145 235.349H80.4325" stroke="#15172F" stroke-width="1.07" stroke-linecap="round" stroke-linejoin="round"/>
<path d="M76.0153 235.349L13.2734 96.4492" stroke="#15172F" stroke-width="1.07" stroke-linecap="round" stroke-linejoin="round"/>
<defs>
<linearGradient id="paint0_linear_6303_27257" x1="151.369" y1="104.35" x2="56.925" y2="287.416" gradientUnits="userSpaceOnUse">
<stop stop-color="#E1CDFF"/>
<stop offset="1" stop-color="#D1B3FF"/>
</linearGradient>
</defs>
</svg>
