<svg width="302" height="302" viewBox="0 0 302 302" fill="none" xmlns="http://www.w3.org/2000/svg">
<path fill-rule="evenodd" clip-rule="evenodd" d="M173 15.505C173 11.6304 171.307 7.26151 168.342 4.35558C165.424 1.44964 161.379 0 157.181 0H15.8188C11.6209 0 7.62952 1.44964 4.65768 4.35558C1.68584 7.26151 0 11.6304 0 15.505V157.495C0 161.37 1.68584 165.732 4.65768 168.638C7.62952 171.55 11.6209 173 15.8188 173H157.181C161.379 173 165.424 171.544 168.342 168.638C171.314 165.732 173 161.37 173 157.495V15.505Z" fill="url(#paint0_linear_6316_27757)"/>
<path d="M143.963 67.3867L212.962 191.488H47.3857V67.3867H143.963Z" fill="white"/>
<path d="M47.386 191.488L15.4934 215.43C12.3036 218.623 14.5626 224.076 19.0701 224.076H273.427C278.008 224.076 280.23 218.471 276.899 215.326L243.48 191.488H47.386V191.488Z" stroke="#15172F" stroke-width="1.4" stroke-linecap="round" stroke-linejoin="round"/>
<path d="M59.774 74.5781H232.619C234.883 74.5781 236.718 76.415 236.718 78.681V184.293H55.6743V78.6862C55.6743 76.4202 57.5098 74.5834 59.774 74.5834V74.5781Z" fill="#15172F"/>
<path d="M97.2041 159.904H110.251" stroke="white" stroke-width="1.4" stroke-linecap="round" stroke-linejoin="round"/>
<path d="M97.2041 166.445H110.251" stroke="white" stroke-width="1.4" stroke-linecap="round" stroke-linejoin="round"/>
<path d="M75.043 172.689H84.309" stroke="white" stroke-width="1.4" stroke-linecap="round" stroke-linejoin="round"/>
<path d="M244.489 67.3867H47.3857V191.493H244.489V67.3867Z" stroke="#15172F" stroke-width="1.4" stroke-linecap="round" stroke-linejoin="round"/>
<path d="M277.04 279.003C277.04 279.003 254.021 224.19 248.379 218.151C242.737 212.117 225.81 205.691 216.079 197.511C206.347 189.332 197.4 188.165 193.897 186.025C190.393 183.884 193.311 175.312 204.402 179.211C215.493 183.104 218.996 188.557 224.832 180.964C230.668 173.371 225.026 163.731 217.051 141.338C209.072 118.945 209.777 116.391 211.848 115.072C214.792 113.199 217.443 118.259 217.443 118.259C217.443 118.259 216.152 114.706 218.803 113.586C222.202 112.152 224.058 115.533 244.489 154.091C244.489 154.091 247.6 151.558 253.441 156.818C253.441 156.818 257.138 151.757 263.946 157.985C270.755 164.218 270.021 163.136 283 188.354C284.008 190.313 289 200.854 289 200.854" fill="white"/>
<path d="M277.04 279.003C277.04 279.003 254.021 224.19 248.379 218.151C242.737 212.117 225.81 205.691 216.079 197.511C206.347 189.332 197.4 188.165 193.897 186.025C190.393 183.884 193.311 175.312 204.402 179.211C215.493 183.104 218.996 188.557 224.832 180.964C230.668 173.371 225.026 163.731 217.051 141.338C209.072 118.945 209.777 116.391 211.848 115.072C214.792 113.199 217.443 118.259 217.443 118.259C217.443 118.259 216.152 114.706 218.803 113.586C222.202 112.152 224.058 115.533 244.489 154.091C244.489 154.091 247.6 151.558 253.441 156.818C253.441 156.818 257.138 151.757 263.946 157.985C270.755 164.218 270.021 163.136 283 188.354C284.008 190.313 289 200.854 289 200.854" stroke="#15172F" stroke-width="1.4" stroke-linecap="round" stroke-linejoin="round"/>
<path d="M217.443 118.26L238.789 161.858" stroke="#15172F" stroke-width="1.4" stroke-linecap="round" stroke-linejoin="round"/>
<path d="M194.519 186.396C194.958 184.245 196.862 182.623 199.142 182.623C201.746 182.623 203.864 184.737 203.864 187.349" stroke="#15172F" stroke-width="1.4" stroke-linecap="round" stroke-linejoin="round"/>
<path d="M216.503 123.542C217.932 122.984 218.52 121.067 217.816 119.261C217.112 117.454 215.383 116.441 213.954 116.998C212.525 117.556 211.938 119.473 212.642 121.279C213.346 123.086 215.075 124.099 216.503 123.542Z" stroke="#15172F" stroke-width="1.4" stroke-linecap="round" stroke-linejoin="round"/>
<path d="M225.993 120.028C225.784 120.981 225.214 121.755 224.367 122.085C222.845 122.681 220.999 121.598 220.246 119.672C219.493 117.746 220.121 115.7 221.648 115.104C221.92 114.999 222.207 114.941 222.495 114.941" stroke="#15172F" stroke-width="1.4" stroke-linecap="round" stroke-linejoin="round"/>
<path d="M253.441 156.812C253.441 156.812 255.203 158.461 257.311 162.386" stroke="#15172F" stroke-width="1.4" stroke-linecap="round" stroke-linejoin="round"/>
<path d="M244.488 154.086L248.279 161.151" stroke="#15172F" stroke-width="1.4" stroke-linecap="round" stroke-linejoin="round"/>
<path d="M248.379 218.15C248.379 218.15 256 220.354 279.5 263.854L277.045 279.002C277.045 279.002 255.778 227.497 248.384 218.15H248.379Z" fill="#15172F"/>
<path d="M102.066 147.302V115.358V27.7383H189.623V147.302H156.737" fill="#D1B3FF"/>
<path d="M189.623 27.7383L118.214 147.302H189.623V27.7383Z" fill="white"/>
<path d="M146.316 90.0501C160.929 90.0501 172.775 78.1946 172.775 63.57C172.775 48.9454 160.929 37.0898 146.316 37.0898C131.702 37.0898 119.856 48.9454 119.856 63.57C119.856 78.1946 131.702 90.0501 146.316 90.0501Z" fill="white"/>
<path d="M153.179 49.3915C162.441 42.9111 165.467 31.2423 159.938 23.3285C154.409 15.4147 142.419 14.2526 133.158 20.733C123.896 27.2134 120.87 38.8822 126.399 46.796C131.928 54.7099 143.918 55.8719 153.179 49.3915Z" fill="#15172F"/>
<path d="M123.077 75.7839L125.995 72.5393C125.995 72.5393 134.749 64.8359 137.829 63.3863L139.01 62.9258L138.754 61.8844V48.749C138.754 48.749 136.966 48.7856 136.422 47.4878C135.878 46.1899 135.162 44.6514 136.025 43.5524C136.887 42.4482 137.912 42.0662 137.912 42.0662L140.213 37.508L148.407 36.6445L152.507 37.5289C152.507 37.5289 153.208 41.5428 153.338 45.3317C153.464 49.1258 153.124 52.1244 151.738 52.8466L151.037 53.7938L152.345 62.392C152.345 62.392 156.983 63.8102 161.229 67.2851C165.475 70.7652 169.564 74.5436 169.564 74.5436L170.03 75.7577C170.03 75.7577 167.394 80.8444 163.687 83.55C159.979 86.2556 158.536 88.3018 149.552 89.8508C140.569 91.4051 132.579 86.758 129.922 84.3454C127.266 81.9329 123.082 75.7786 123.082 75.7786L123.077 75.7839Z" fill="white"/>
<path d="M122.769 76.1911C122.769 76.1911 127.611 69.3722 138.754 62.8359" stroke="#15172F" stroke-width="1.4" stroke-linecap="round" stroke-linejoin="round"/>
<path d="M152.125 62.3281C152.125 62.3281 160.215 64.479 170.025 75.3379" stroke="#15172F" stroke-width="1.4" stroke-linecap="round" stroke-linejoin="round"/>
<path d="M139.711 45.6087C139.711 45.6087 138.718 44.1277 138.048 43.3113C137.698 42.8822 136.908 43.3689 136.568 42.8508C135.543 41.3018 134.853 39.5748 136.296 38.9625C136.296 38.9625 134.247 33.7607 140.025 31.5418C145.803 29.3229 151.78 29.4642 154.196 32.4628C156.612 35.4615 150.483 40.7523 141.73 39.2137C141.73 39.2137 141.573 42.7461 139.894 45.4517L139.706 45.6035L139.711 45.6087Z" fill="#15172F"/>
<path d="M143.403 54.8089C143.403 54.8089 153.72 56.2114 153.401 48.1784C153.082 40.1453 152.256 36.0059 152.256 36.0059" stroke="#15172F" stroke-width="1.4" stroke-linecap="round" stroke-linejoin="round"/>
<path d="M148.402 42.5059C148.402 42.5059 148.941 45.3737 149.004 47.3518" stroke="#15172F" stroke-width="1.4" stroke-linecap="round" stroke-linejoin="round"/>
<path d="M139.769 45.8244C139.769 45.8244 137.86 41.6169 136.265 43.213C135.021 44.4585 136.14 48.9486 138.749 48.7602V62.8481L148.402 73.4297L152.125 62.3405L151.158 53.3341" stroke="#15172F" stroke-width="1.4" stroke-linecap="round" stroke-linejoin="round"/>
<path d="M148.794 76.8203C148.794 76.8203 149.453 79.3637 150.112 86.507" stroke="#15172F" stroke-width="1.4" stroke-linecap="round" stroke-linejoin="round"/>
<path d="M143.162 55.1789L151.764 62.8351L150.776 53.5723C150.776 53.5723 148.522 54.7393 146.917 54.7393C145.312 54.7393 143.157 55.1789 143.157 55.1789H143.162Z" fill="#15172F"/>
<path d="M114.324 119.262H178.14" stroke="#15172F" stroke-width="1.4" stroke-linecap="round" stroke-linejoin="round"/>
<path d="M127.36 127.242H165.496" stroke="#15172F" stroke-width="1.4" stroke-linecap="round" stroke-linejoin="round"/>
<path d="M102.066 127.243V27.7383H189.623V147.302H102.066" stroke="#15172F" stroke-width="1.4" stroke-miterlimit="10"/>
<path d="M15.7549 282.196C15.7549 282.196 43.5949 197.538 69.6571 180.661C69.6571 180.661 74.128 177.375 78.0342 183.246C78.0342 183.246 84.7223 174.711 93.2511 181.294C93.2511 181.294 100.305 174.13 107.255 184.246C107.255 184.246 115.574 177.029 123.784 185.46C131.999 193.891 132.177 199.506 128.537 200.317C123.612 201.416 117.577 192.043 117.577 192.043C117.577 192.043 113.885 194.414 109.99 198.632C106.094 202.845 108.803 211.867 134.462 206.325C143.974 204.268 148.664 208.235 147.289 212.437C146.343 215.336 144.936 214.588 131.576 216.519C116.254 218.733 114.973 230.016 88.0899 231.507C78.6146 232.036 73.7724 293.045 73.7724 293.045" fill="white"/>
<path d="M15.7549 282.196C15.7549 282.196 43.5949 197.538 69.6571 180.661C69.6571 180.661 74.128 177.375 78.0342 183.246C78.0342 183.246 84.7223 174.711 93.2511 181.294C93.2511 181.294 100.305 174.13 107.255 184.246C107.255 184.246 115.574 177.029 123.784 185.46C131.999 193.891 132.177 199.506 128.537 200.317C123.612 201.416 117.577 192.043 117.577 192.043C117.577 192.043 113.885 194.414 109.99 198.632C106.094 202.845 108.803 211.867 134.462 206.325C143.974 204.268 148.664 208.235 147.289 212.437C146.343 215.336 144.936 214.588 131.576 216.519C116.254 218.733 114.973 230.016 88.0899 231.507C78.6146 232.036 73.7724 293.045 73.7724 293.045" stroke="#15172F" stroke-width="1.4" stroke-linecap="round" stroke-linejoin="round"/>
<path d="M117.577 192.049C117.577 192.049 120.83 189.626 124.108 189.238L117.577 192.049Z" fill="white"/>
<path d="M117.577 192.049C117.577 192.049 120.83 189.626 124.108 189.238" stroke="#15172F" stroke-width="1.4" stroke-linecap="round" stroke-linejoin="round"/>
<path d="M137.39 215.53C135.874 214.378 135.32 212.28 136.177 210.495C137.155 208.454 139.602 207.591 141.642 208.575C143.038 209.244 143.88 210.605 143.963 212.049" stroke="#15172F" stroke-width="1.4" stroke-linecap="round" stroke-linejoin="round"/>
<path d="M109.806 182.65C109.806 182.65 104.483 185.576 98.8618 190.322L109.806 182.65Z" fill="white"/>
<path d="M109.806 182.65C109.806 182.65 104.483 185.576 98.8618 190.322" stroke="#15172F" stroke-width="1.4" stroke-linecap="round" stroke-linejoin="round"/>
<path d="M94.8982 180.064C94.8982 180.064 91.928 181.844 88.7173 186.486L94.8982 180.064Z" fill="white"/>
<path d="M94.8982 180.064C94.8982 180.064 91.928 181.844 88.7173 186.486" stroke="#15172F" stroke-width="1.4" stroke-linecap="round" stroke-linejoin="round"/>
<path d="M79.7022 181.598C79.7022 181.598 77.4851 183.607 74.1279 187.841L79.7022 181.598Z" fill="white"/>
<path d="M79.7022 181.598C79.7022 181.598 77.4851 183.607 74.1279 187.841" stroke="#15172F" stroke-width="1.4" stroke-linecap="round" stroke-linejoin="round"/>
<path d="M150.014 215.53H202.964L185.431 205.398H163.107" stroke="#15172F" stroke-width="1.4" stroke-linecap="round" stroke-linejoin="round"/>
<defs>
<linearGradient id="paint0_linear_6316_27757" x1="126.506" y1="8.65" x2="47.575" y2="161.647" gradientUnits="userSpaceOnUse">
<stop stop-color="#00ECA1"/>
<stop offset="1" stop-color="#39D87D"/>
</linearGradient>
</defs>
</svg>
