<svg width="302" height="302" viewBox="0 0 302 302" fill="none" xmlns="http://www.w3.org/2000/svg">
<path d="M198.5 301C255.665 301 302 254.663 302 197.5C302 140.337 255.658 94 198.5 94C141.342 94 95 140.337 95 197.5C95 254.663 141.342 301 198.5 301Z" fill="url(#paint0_linear_6316_28099)"/>
<path d="M49.8494 33.3223C50.7177 33.467 51.3255 34.5476 51.75 34.2003L51.4799 34.0362C52.9368 34.866 54.7313 35.4352 56.275 36.2457C56.4776 36.6991 55.4067 35.7536 55.5321 36.2457C56.5066 36.95 57.6547 37.3938 58.7256 38.1656C58.523 38.0884 58.552 38.1367 58.4555 38.0981C59.4589 38.9375 58.4941 37.7797 59.401 38.3875C59.2659 38.484 59.3045 38.5226 59.565 38.8024H59.9606C59.9799 38.8506 59.8738 38.9954 59.7001 38.9664C60.2693 38.9857 61.3499 39.9891 61.8323 39.9795C61.8709 40.0953 61.4946 40.1628 61.5525 40.3365C61.9771 40.732 62.3726 40.8671 62.7585 41.0022C62.8454 40.8864 63.0383 41.0118 63.2506 41.2048C63.4436 41.3109 63.6462 41.446 63.8391 41.6583C63.6269 41.5425 63.4243 41.3592 63.2506 41.2048C63.0962 41.118 62.9322 41.0601 62.7585 41.0022C62.9805 41.3881 63.7716 41.9863 63.5883 41.8802C64.3601 42.5941 63.8198 41.8512 64.5531 42.1986L63.9742 41.5907L65.1802 42.4398L64.6303 42.1986C65.0934 42.7003 65.7977 42.9222 66.4248 43.4046L66.2415 43.0572C66.502 43.2116 66.7625 43.366 67.0134 43.53C66.8686 43.8484 67.8431 44.3308 67.216 44.3211C68.3738 45.5271 69.5122 45.8455 70.6604 46.8489C70.4674 46.6753 70.4963 46.7911 70.4192 46.8007C71.027 47.4471 71.5383 47.6787 72.0497 47.9006C71.8953 47.9006 71.712 47.7945 71.6541 47.8523C72.426 48.5567 72.2619 48.1321 73.1882 48.8364C72.8505 48.7303 72.8794 48.8461 73.0917 49.0873C73.1399 48.9619 73.4004 49.0777 73.5837 49.1934C72.4839 49.097 74.3266 50.2837 73.5644 50.303C73.6995 50.2354 75.2046 51.2678 75.0213 50.7082L74.7608 50.5249C74.8669 50.3608 75.1178 50.7178 75.3686 50.9301C75.5616 51.0555 75.7256 51.1906 75.4748 51.0169C75.4458 50.9976 75.4072 50.9687 75.3686 50.9301C75.2239 50.8336 75.0695 50.7468 75.0406 50.7661C76.3913 51.7309 77.4623 53.0913 78.8709 54.2877C78.7069 54.2201 78.0991 53.7859 78.3885 54.1622C79.6042 55.5226 80.5883 56.0436 81.9776 57.2689C81.7171 57.6259 80.5593 55.8699 80.212 56.1015C81.611 57.4426 83.1064 58.774 84.7177 60.2212C84.7563 61.2053 86.3386 61.5913 86.8595 62.9131C86.9367 62.6719 87.4384 63.1157 87.9208 63.656L87.9884 63.7331C88.2199 63.9936 88.4515 64.2734 88.6252 64.4953L87.9884 63.7331L87.9112 63.656C87.6121 63.5884 88.1235 64.1577 87.8919 64.0805C88.4611 64.4182 89.7443 65.7303 89.3874 65.9522C89.7926 65.8075 90.275 66.9846 90.8346 67.1775C90.7284 67.0135 90.6513 66.8398 90.5934 66.6469L90.96 67.2258C90.96 67.2258 90.8732 67.1968 90.8346 67.1872C91.2591 67.8818 92.0406 68.4125 92.6195 69.2422C92.5712 68.8081 93.372 69.9079 93.7001 70.1106C93.6229 70.043 93.4492 69.9079 93.4589 69.9755C93.4975 70.3421 94.3658 70.7087 94.6456 71.2201C94.7517 71.4709 94.4333 71.3262 94.6938 71.6543C94.8289 71.5481 96.006 72.5322 96.2182 73.1015C96.0446 72.9085 95.977 72.9664 95.813 72.8892C97.8198 74.6741 99.46 77.0186 101.563 78.7746L101.013 78.6298C101.891 80.1349 102.142 79.1026 103.03 80.106C105.423 82.8943 107.835 85.8852 110.555 88.2104C110.806 88.3262 110.517 88.0271 110.575 87.9017C110.777 88.1429 110.671 88.3841 111.086 88.5481L111.125 88.3648C111.578 89.0787 112.504 89.812 113.363 90.5356C114.222 91.2689 115.061 91.9153 115.293 92.581C115.978 92.9863 116.45 93.4494 116.971 93.9318C117.512 94.3852 118.091 94.858 118.959 95.2825C119.345 95.7649 118.235 95.0799 118.853 95.6105L120.396 96.4789L120.31 96.4403C121.969 96.9999 123.619 99.4987 125.655 100.28L125.568 100.251C125.462 100.319 125.77 100.666 126.079 100.821C126.224 100.821 126.05 100.656 125.925 100.464C127.623 101.322 127.999 101.457 129.311 102.113C128.674 101.969 129.765 102.519 129.716 102.76C130.131 102.789 129.61 102.461 130.459 102.692C131.608 103.126 132.534 103.831 133.489 104.207C133.952 104.139 134.444 104.371 134.56 104.13C135.862 104.583 136.644 104.651 138.284 105.075L138.303 105.172C138.805 104.998 139.712 105.645 140.059 105.519C139.992 105.625 139.799 105.635 139.828 105.731L140.609 105.77C140.233 105.799 139.963 106.059 140.59 106.214C141.285 106.117 140.436 106.031 140.793 105.905L140.937 106.233C141.439 106.291 141.632 105.992 141.043 105.789C141.873 105.973 142.732 106.021 143.552 106.098C144.372 106.175 145.173 106.252 145.935 106.33L145.752 106.513C146.601 106.503 147.739 106.58 148.231 106.793C148.26 106.735 148.472 106.648 148.337 106.571C149.36 106.33 148.434 106.899 149.543 106.629C149.264 106.696 148.916 106.725 148.868 106.841L150.942 106.638C150.952 106.715 151.27 106.831 151.695 106.928C152.119 107.005 152.66 107.034 153.094 106.957C153.123 106.87 152.872 106.773 152.65 106.764L152.428 106.802L152.65 106.764L153.21 106.677L153.653 107.005L154.454 106.687V106.619H154.609L154.454 106.677L154.483 106.957C155.081 106.889 155.303 106.503 155.786 106.503C157.6 106.561 157.243 106.687 158.555 106.86C158.651 106.31 160.6 106.667 160.89 106.243C161.768 106.368 162.819 106.252 163.938 106.098C165.058 105.963 166.225 105.731 167.354 105.587L167.18 105.664C168.184 105.741 168.193 105.085 169.235 104.988L168.994 105.114C170.364 105.133 172.622 104.419 173.808 103.889C173.577 104.024 173.741 104.168 174.136 104.053C174.455 103.869 173.722 103.763 174.445 103.696C174.281 103.782 174.445 103.869 174.609 103.84L175.236 103.416C177.069 103.155 179.24 102.808 181.044 102.133C181.411 102.133 181.189 102.297 181.131 102.403C181.778 102.2 182.405 101.959 183.022 101.708V75.8898C182.781 75.9477 182.55 75.967 182.492 75.8801C182.289 75.9187 182.154 75.9187 181.942 75.9284C181.826 75.9959 181.701 76.0442 181.546 76.0538L181.604 76.0152C181.604 76.0152 181.537 75.967 181.498 75.9573C180.832 75.9959 180.002 76.5555 179.491 76.816C179.964 76.4011 179.289 76.4783 179.24 76.2467C179.182 76.266 179.848 76.1889 180.668 76.0249C180.601 76.0152 180.552 75.9766 180.523 75.8994C179.771 75.7933 179.346 76.3336 178.285 76.3432C178.343 76.3046 178.468 76.2275 178.411 76.1503C178.034 76.1503 177.726 76.3915 177.668 76.5458C177.533 76.3336 176.722 76.3046 176.355 76.4687C176.047 76.7195 176.105 76.7967 175.487 76.8835L175.738 76.6713C174.995 76.6713 175.178 76.9993 174.551 76.9511C174.802 76.9897 174.802 76.816 174.609 76.8064C173.857 76.9897 173.847 77.0765 173.336 77.4721L173.403 77.2116C172.776 77.4431 171.57 77.8966 171.522 77.5589C171.782 78.051 170.123 78.0317 169.544 78.0413C169.737 78.0124 169.766 77.8966 169.785 77.8387C168.608 78.2632 167.344 78.0027 166.138 78.0895L165.926 77.7133C165.289 77.7712 165.135 78.5527 164.43 78.5719L164.681 78.379C163.437 78.4658 162.935 78.4176 161.932 78.3597L161.951 78.0992C161.594 78.2246 161.14 78.2246 160.783 78.3404C160.378 78.022 159.568 78.1282 158.661 78.1667C157.764 78.186 156.77 78.186 156.046 77.7808L155.921 78.2536C155.352 78.2053 154.599 78.2536 154.367 77.8773L154.493 77.8966C154.58 77.53 153.924 77.8484 153.567 77.7422C153.296 77.7712 152.997 77.9738 153.219 78.0799C152.457 77.858 151.512 77.7133 150.624 77.5589C149.746 77.4045 148.974 77.1344 148.55 76.8353C147.006 76.6906 145.8 76.6616 144.198 76.1503L144.237 76.102C143.716 75.8705 142.713 75.3495 142.848 74.9732C141.699 74.6548 140.773 74.9346 139.538 74.1821L139.876 74.1628C139.577 73.9505 138.969 73.9023 138.815 73.883C138.699 73.8251 138.815 73.7865 138.853 73.7479C138.593 73.4874 138.323 73.6128 138.052 73.5356L138.207 73.4585C137.29 72.7541 135.457 72.455 134.174 71.7507C134.425 71.8376 134.377 71.635 134.309 71.5288C133.576 71.6446 132.186 70.7666 131.598 70.5737L132.013 70.6026C130.826 70.2939 131.337 69.7053 130.189 69.3677L130.643 69.9369C130.266 69.6282 129.871 69.4931 129.871 69.7246C129.466 69.3098 129.987 69.3966 129.282 68.9238C129.321 68.7984 129.842 69.1554 129.697 68.8756L128.877 67.9976C129.437 68.6247 128.192 67.9687 128.53 68.4414C128.038 67.9687 128.887 68.1231 128.877 68.0073C128.858 67.988 128.848 67.9687 128.819 67.9397L128.877 67.9976C128.858 67.9494 128.742 67.8626 128.404 67.7082C128.192 68.2485 127.575 67.2258 127.777 68.0073C126.378 67.1389 125.394 66.0969 124.092 65.518C123.928 64.7365 121.805 63.9068 122.326 63.4051C121.67 62.9516 121.081 62.6815 120.522 62.614C120.618 62.7587 120.831 62.8069 120.985 62.8745C120.715 62.8938 119.924 62.3438 119.615 62.1026C120.126 62.2859 120.888 62.6815 121.371 62.7104C120.753 62.3342 119.789 61.9482 119.422 61.7746L119.489 61.379C118.843 61.2246 119.258 60.8387 118.554 60.7615L118.583 60.9159C117.714 60.2212 117.492 60.4817 116.643 59.8739L116.769 59.7871C116.528 59.5169 115.9 59.4494 115.833 58.9863L116.373 59.4011C116.479 59.1599 116.142 58.7547 116.045 58.5039C115.447 58.1083 115.592 58.6679 115.283 58.4653C115.312 58.1855 115.331 58.3399 115.678 58.3206C114.993 57.896 114.115 57.2593 113.488 57.1338C113.488 57.0856 113.546 57.0663 113.546 57.0663C112.938 56.4971 112.099 56.3427 111.839 55.8603L111.983 55.9375C111.694 55.2525 110.468 55.0402 110.758 54.4999C110.594 54.2105 111.279 55.0016 111.096 54.442C110.488 53.6412 110.276 54.3745 109.735 53.6702C109.812 53.7666 109.803 53.7087 109.87 53.6991C109.398 53.2842 108.722 52.7729 108.182 52.3387C108.182 52.3677 108.201 52.4063 108.211 52.4352L108.066 52.2423C108.066 52.2423 108.143 52.3098 108.182 52.3387C107.892 51.3932 106.204 50.6213 105.886 49.5311C105.972 49.8881 105.548 49.5311 105.48 49.589C105.48 49.589 105.548 49.589 105.548 49.5311C105.297 49.2706 105.143 49.3768 104.988 49.3382C104.988 49.3575 104.998 49.3768 104.998 49.396C104.863 49.3092 104.853 49.2513 104.786 49.1548C104.853 49.2803 104.921 49.3189 104.988 49.3382C104.902 49.0101 104.159 48.7689 104.11 48.5567C104.014 48.6435 103.84 48.4119 103.618 48.19C104.168 48.547 103.956 48.1514 104.294 48.2093C103.667 47.4857 103.126 47.8234 102.499 47.0419L102.287 46.4823C101.949 46.656 101.428 45.8745 101.341 45.9903C101.341 46.0482 101.361 46.106 101.341 46.1543C101.322 46.0481 101.322 46.0096 101.341 45.9903C101.303 45.7877 101.187 45.5657 101.341 45.4596C101.004 45.228 100.734 44.6685 100.463 44.6974L100.666 45.0544C99.9327 44.0606 99.0258 43.887 98.582 43.009L98.9969 42.6617C98.746 42.0442 98.0031 41.9863 97.8873 41.3591C97.8777 41.6196 97.9452 41.6197 97.54 41.4364C97.6751 41.639 98.0707 41.8802 98.3312 42.1792L97.5304 41.7547L98.5241 42.6424C97.9935 42.3626 98.061 42.3529 98.0514 42.6713C97.3856 42.1793 97.6654 41.8512 96.9997 41.4171C96.8743 41.1566 97.212 41.2434 97.0769 40.9347C96.4787 40.5487 96.5077 39.7093 95.9867 39.5164C95.9288 39.362 96.1796 39.719 96.2472 39.6128C95.9288 39.3041 95.7358 39.0533 95.5332 39.0629L95.7262 39.391L95.8419 39.5839L95.7262 39.391C95.5236 39.1305 95.3209 39.2269 95.0122 38.6577C94.6842 38.4551 94.3465 38.4744 94.5973 38.7735C94.4719 38.677 94.3561 38.3104 94.5588 38.3007C93.9316 37.5385 93.8062 38.3007 93.401 37.4131C93.3334 37.3648 93.2852 37.307 93.3913 37.3938C93.3913 37.3938 93.3913 37.4034 93.401 37.4131C93.4589 37.4517 93.5168 37.4903 93.5264 37.442C93.401 37.2394 93.2756 37.0851 93.1501 36.9789C93.729 37.5964 93.3238 36.5062 93.8834 37.3262C94.0377 37.0561 93.4396 36.7088 93.3334 36.3904C92.88 36.1299 92.9765 36.6123 92.716 36.5061C92.7931 36.4483 92.6677 36.2939 92.5519 36.0817L92.523 36.4C92.3976 36.236 92.2721 36.0817 92.0888 35.9273L92.4072 36.1878C92.166 35.8211 92.0213 35.0782 91.3845 34.6055C91.5775 34.7116 91.973 34.9239 91.7415 34.4511C91.1144 33.8722 91.6933 34.2388 91.5292 33.7661C91.0179 33.1776 91.0951 33.7854 90.603 33.0039H90.4101C90.4101 33.0039 90.4101 33.0232 90.4101 33.0425C90.439 33.0907 90.4583 33.139 90.4872 33.1872C90.4487 33.1679 90.4197 33.11 90.4101 33.0425C90.4101 33.0328 90.3908 33.0232 90.3908 33.0039H49.5889C49.7722 33.0907 49.9651 33.1679 50.1388 33.2644C50.216 33.2355 50.052 33.4284 49.8494 33.3705V33.3223ZM156.722 78.1764L156.972 78.2053L156.432 78.2536L156.722 78.1764ZM118.959 61.4851C118.679 61.4465 118.419 61.1378 118.38 60.9352C118.534 61.0027 118.718 61.2825 118.959 61.4851ZM107.564 51.6923L107.449 51.9817C107.092 51.7695 107.352 51.5669 107.564 51.6923ZM56.7574 36.5737L57.0758 36.9403L56.4583 36.6412L56.7574 36.5737Z" fill="#15172F"/>
<path d="M25.073 74.4243C25.1502 74.4243 24.4266 74.3761 23.4521 74.4532V74.6558C24.3591 74.6751 25.0827 74.3567 26.472 74.4725C26.3755 74.5015 26.1826 74.5594 26.2501 74.6462C26.7904 74.7041 27.2825 74.5111 27.4079 74.3664C27.543 74.598 28.7007 74.7427 29.27 74.6269C29.7717 74.4436 29.7041 74.2989 30.6207 74.3954L30.2155 74.5304C31.2768 74.7427 31.1031 74.3471 31.9811 74.5401C31.6338 74.4532 31.5952 74.6173 31.8557 74.6752C32.9845 74.6655 33.0134 74.569 33.8432 74.2989L33.6792 74.5401C34.644 74.4629 36.4868 74.2506 36.4675 74.6269C36.2263 74.048 38.5708 74.6848 39.4005 74.8295C39.111 74.8006 39.0435 74.897 39.0049 74.9549C40.7898 74.9163 42.5361 75.418 44.2342 75.9197L44.4175 76.3636C45.3244 76.5758 45.7682 75.9005 46.7524 76.1706L46.3471 76.2574C48.1127 76.653 48.8267 76.817 50.1774 77.3959L50.0713 77.6371C50.602 77.695 51.2194 77.9169 51.7501 77.9748C52.2035 78.4765 53.3517 78.766 54.5963 79.1615C55.8119 79.6343 57.153 80.1649 57.9924 80.9368L58.3301 80.5605C58.7064 80.7438 59.1502 80.9175 59.5265 81.1104C59.8931 81.3227 60.1729 81.5735 60.2597 81.8244L60.1053 81.7279C59.8641 82.0174 60.829 82.1428 61.2438 82.4708C61.6105 82.6252 62.0639 82.6155 61.8034 82.384C62.2569 82.712 62.7875 83.0401 63.3375 83.3778C63.6173 83.5418 63.8971 83.7058 64.1769 83.8698C64.447 84.0435 64.7172 84.2364 64.9776 84.4197C66.0196 85.153 66.9652 85.8477 67.409 86.4072C68.3931 86.9379 69.2228 87.4492 70.0719 87.9799C70.9209 88.5105 71.7796 89.0701 72.7058 89.842L72.6479 89.8709C73.2075 90.4595 74.3363 91.6269 74.0565 91.926C74.7319 92.4566 75.359 92.804 76.0054 93.2092C76.6422 93.6144 77.2597 94.1161 77.9351 94.8879L77.5106 94.6853C77.8289 95.1002 78.5526 95.544 78.7359 95.6598C78.8613 95.7949 78.7069 95.7563 78.649 95.7756C78.8999 96.2194 79.2665 96.2676 79.5752 96.5088L79.363 96.4895C80.3085 97.8306 82.4697 99.3068 83.859 100.879C83.5696 100.629 83.5985 100.879 83.6564 101.034C84.5633 101.352 86.0781 103.147 86.7535 103.726L86.2614 103.446C87.6314 104.497 86.9078 104.845 88.2682 105.887L87.8051 104.999C88.2103 105.559 88.6734 105.925 88.7024 105.675C89.1269 106.36 88.5191 105.983 89.3006 106.89C89.2427 107.016 88.6541 106.311 88.7989 106.707L89.6768 108.154C89.0786 107.131 90.4969 108.569 90.1496 107.845C90.6899 108.646 89.6865 108.009 89.6768 108.154C89.6961 108.193 89.7154 108.212 89.7347 108.26L89.6768 108.164C89.6865 108.231 89.8216 108.386 90.2171 108.752C90.5259 108.27 91.1819 109.736 91.0083 108.752C92.6388 110.45 93.7387 112.148 95.3499 113.383C95.4464 113.866 96.1411 114.589 96.7393 115.226C97.3471 115.844 97.8681 116.384 97.5497 116.567C98.3794 117.358 99.1513 117.889 99.8459 118.159C99.7205 117.966 99.4504 117.831 99.2574 117.696C99.6047 117.764 100.598 118.709 101.042 119.066C100.357 118.709 99.4118 117.957 98.7943 117.754C99.5951 118.42 100.82 119.211 101.332 119.5L101.293 119.944C102.133 120.311 101.66 120.639 102.557 120.938L102.499 120.745C103.705 121.797 103.927 121.565 105.123 122.443L104.979 122.511C105.355 122.867 106.165 123.051 106.358 123.61L105.577 123.041C105.5 123.302 106.021 123.832 106.214 124.141C107.082 124.71 106.754 124.035 107.179 124.315C107.207 124.633 107.15 124.45 106.725 124.421C107.69 125.048 108.983 125.926 109.851 126.071C109.87 126.129 109.793 126.138 109.793 126.138C110.777 126.814 111.868 127.007 112.369 127.566L112.157 127.47C112.803 128.251 114.482 128.309 114.376 128.936C114.723 129.245 113.479 128.454 113.98 129.042C115.167 129.862 115.042 129.023 116.064 129.737C115.92 129.64 115.958 129.698 115.881 129.727C116.701 130.104 117.849 130.451 118.785 130.769C118.756 130.74 118.718 130.702 118.689 130.673L118.988 130.837C118.92 130.818 118.843 130.789 118.785 130.769C119.026 130.991 119.364 131.184 119.76 131.367C120.146 131.551 120.599 131.715 121.062 131.821C121.988 132.072 122.934 132.332 123.532 132.805C123.156 132.487 123.937 132.68 123.957 132.593C123.957 132.593 123.889 132.631 123.928 132.68C124.42 132.834 124.526 132.68 124.728 132.651C124.709 132.631 124.69 132.622 124.671 132.602C124.902 132.631 124.941 132.68 125.105 132.747C124.931 132.651 124.825 132.641 124.728 132.651C125.085 132.969 126.147 132.786 126.378 132.95C126.417 132.824 126.803 132.94 127.247 133.027C126.32 132.988 126.899 133.239 126.455 133.345C127.787 133.664 128.105 133.104 129.466 133.471L130.199 133.857C130.402 133.558 131.694 133.799 131.675 133.673C131.608 133.635 131.55 133.596 131.521 133.548C131.636 133.615 131.675 133.654 131.675 133.673C131.897 133.808 132.244 133.915 132.177 134.088C132.756 134.059 133.576 134.329 133.836 134.136L133.286 133.982C135.023 134.281 136.094 133.924 137.425 134.136L137.377 134.677C138.274 134.908 139.056 134.397 139.828 134.735C139.558 134.551 139.5 134.6 140.069 134.436C139.731 134.397 139.094 134.532 138.525 134.522L139.741 134.214L137.86 134.349C138.67 134.146 138.612 134.194 138.284 133.972C139.423 133.808 139.509 134.243 140.6 134.05C140.995 134.127 140.6 134.32 141.043 134.436C142.008 134.291 142.905 134.773 143.6 134.436C143.832 134.474 143.205 134.484 143.262 134.609C143.89 134.513 144.343 134.493 144.517 134.32L143.976 134.301H143.668H143.976C144.449 134.281 144.517 134.05 145.424 134.108C145.935 133.944 146.205 133.654 145.636 133.693C145.858 133.644 146.379 133.751 146.215 133.924C147.614 133.828 146.832 133.297 148.202 133.451C148.318 133.423 148.424 133.413 148.231 133.451C148.222 133.451 148.212 133.451 148.202 133.451C148.115 133.471 148.019 133.509 148.067 133.538C148.299 133.558 148.492 133.538 148.665 133.5C148.733 133.48 148.8 133.461 148.907 133.451C148.839 133.48 148.752 133.49 148.665 133.5C147.99 133.683 149.206 133.876 147.913 133.895C148.009 134.03 148.28 134.03 148.579 133.992C148.878 133.934 149.215 133.847 149.447 133.876C150.103 133.577 149.466 133.451 149.794 133.258C149.794 133.345 150.084 133.307 150.421 133.287L150.064 133.123C150.344 133.075 150.624 133.037 150.952 132.93L150.402 133.104C151.02 133.046 152.013 133.239 153.055 132.863C152.785 132.998 152.245 133.258 152.988 133.258C154.155 132.93 153.277 133.307 153.982 133.365C155.159 133.114 154.126 132.979 155.882 132.766C156.066 132.718 155.873 132.641 155.67 132.622C155.593 132.631 155.525 132.641 155.438 132.66C155.487 132.622 155.583 132.622 155.67 132.622C156.857 132.438 157.465 132.139 158.632 132.014C158.121 132.081 157.725 132.101 158.371 131.84C158.13 132.081 159.336 131.782 159.809 131.782L159.896 131.647C160.272 131.676 159.915 131.811 159.635 131.917C159.635 131.946 159.568 131.995 159.394 132.043C159.346 132.024 159.481 131.975 159.635 131.917C159.635 131.879 159.529 131.869 159.317 131.927C158.777 132.149 159.076 132.506 159.983 132.323C160.909 131.995 160.687 131.753 160.494 131.686C161.797 131.493 161.555 130.924 162.81 130.779C163.08 130.692 164.102 130.827 164.99 130.586C165.366 130.2 163.861 130.75 164.295 130.393C165.916 130.528 167.132 129.081 169.129 128.83L168.994 129.197C169.438 129.071 169.882 128.955 170.364 128.763L169.66 128.811C170.084 128.618 171.117 128.309 170.866 128.647C171.744 128.029 172.004 128.077 172.93 127.798C171.966 128.155 172.901 127.769 172.255 128.193C173.307 127.933 173.355 127.807 174.021 127.46C173.943 127.605 174.368 127.614 174.638 127.508C175.217 127.064 176.346 126.659 177.214 126.206L177.243 126.293C178.739 125.617 180.504 125.212 181.884 124.247C181.855 124.247 181.826 124.247 181.787 124.247L181.556 124.324C181.266 124.44 180.948 124.614 180.948 124.508L181.556 124.324L181.787 124.247H181.826C181.295 124.218 182.405 123.717 183.013 123.36V103.764C182.791 103.822 182.617 103.841 182.366 103.88C182.212 103.967 182.048 104.034 181.855 104.063L181.932 104.015C181.932 104.015 181.845 103.976 181.797 103.967C180.938 104.083 179.877 104.797 179.231 105.144C179.829 104.652 178.961 104.835 178.903 104.604C178.825 104.642 179.684 104.44 180.736 104.15C180.649 104.15 180.581 104.121 180.543 104.044C179.568 104.063 179.038 104.681 177.658 104.854C177.735 104.806 177.899 104.71 177.812 104.642C177.33 104.7 176.934 104.99 176.867 105.154C176.693 104.961 175.642 105.057 175.159 105.26C174.764 105.549 174.841 105.617 174.04 105.781L174.358 105.539C173.384 105.626 173.635 105.954 172.824 106.003C173.152 106.003 173.143 105.819 172.902 105.839C171.927 106.147 171.927 106.224 171.281 106.688L171.358 106.408C170.547 106.726 169.004 107.363 168.926 107.016C169.293 107.488 167.113 107.614 166.37 107.73C166.621 107.672 166.65 107.556 166.669 107.488C165.173 108.116 163.504 107.971 161.922 108.193L161.623 107.836C160.783 107.942 160.629 108.723 159.713 108.81L160.021 108.588C158.41 108.839 157.744 108.81 156.423 108.849V108.588C155.969 108.733 155.381 108.791 154.908 108.916C154.358 108.617 153.297 108.723 152.119 108.829C150.942 108.916 149.64 108.926 148.665 108.569L148.521 109.051C147.768 109.013 146.784 109.022 146.456 108.637L146.62 108.656C146.717 108.289 145.867 108.598 145.404 108.482C145.047 108.501 144.661 108.704 144.961 108.81C143.967 108.569 142.732 108.415 141.584 108.241C140.445 108.009 139.403 107.768 138.834 107.43C136.846 107.122 135.235 107.141 133.161 106.35L133.199 106.302C132.862 106.147 132.341 105.945 131.945 105.675C131.55 105.404 131.26 105.144 131.337 104.951C130.595 104.69 129.938 104.584 129.253 104.43C128.588 104.237 127.903 103.967 127.102 103.455L127.536 103.513C127.15 103.214 126.369 103.041 126.185 102.973C126.05 102.877 126.185 102.877 126.243 102.838C125.934 102.481 125.597 102.529 125.278 102.375L125.471 102.336C124.912 101.825 124.072 101.381 123.156 100.928C122.249 100.474 121.332 99.9339 120.56 99.3647C120.869 99.5287 120.811 99.2971 120.724 99.1621C120.271 99.1235 119.625 98.7665 118.997 98.3806C118.39 97.9657 117.811 97.5122 117.463 97.3096L117.965 97.4736C116.556 96.75 117.193 96.2773 115.794 95.5633L116.335 96.3062C115.881 95.8624 115.408 95.6019 115.399 95.8528C114.936 95.2642 115.543 95.5247 114.733 94.7818C114.781 94.6564 115.399 95.2256 115.225 94.8687L114.28 93.6337C114.916 94.5117 113.469 93.3732 113.855 94.0003C113.286 93.325 114.289 93.7784 114.28 93.6337C114.26 93.6048 114.241 93.5855 114.212 93.5469L114.27 93.6337C114.251 93.5758 114.116 93.4407 113.72 93.1513C113.459 93.6626 112.736 92.3601 112.967 93.2671C111.298 91.8874 110.227 90.3726 108.693 89.3017C108.529 88.3851 106.069 86.7353 106.696 86.3687C105.953 85.6354 105.278 85.124 104.622 84.8732C104.728 85.0565 104.979 85.1916 105.152 85.317C104.834 85.2495 103.937 84.3715 103.57 83.9952C104.168 84.3715 105.037 85.0662 105.606 85.2591C104.892 84.632 103.782 83.8795 103.348 83.5611L103.445 83.1365C102.702 82.7506 103.194 82.4515 102.393 82.1235L102.422 82.3068C101.438 81.2262 101.168 81.4578 100.193 80.5026L100.338 80.4447C100.058 80.0684 99.3346 79.7886 99.2767 79.229L99.8845 79.8755C100.01 79.6343 99.6337 79.065 99.5179 78.7466C98.8329 78.1002 98.9873 78.7852 98.6496 78.4572C98.6882 78.1485 98.7075 78.3318 99.103 78.4186C98.3312 77.7046 97.2988 76.7302 96.5752 76.3829C96.5752 76.325 96.6428 76.325 96.6428 76.325C95.9481 75.4856 94.9833 75.0611 94.6842 74.4243L94.8482 74.5594C94.5202 73.6814 93.0923 73.0929 93.4203 72.5622C93.2273 72.1763 94.0281 73.2762 93.8062 72.5912C93.0826 71.5009 92.8607 72.2824 92.2336 71.3176C92.3204 71.443 92.3204 71.3851 92.388 71.3851C91.8284 70.7773 91.0565 69.9958 90.4004 69.359C90.4101 69.3976 90.4294 69.4362 90.439 69.4748L90.2654 69.2143C90.2654 69.2143 90.3618 69.3108 90.4101 69.3494C90.0242 68.1916 88.0463 66.8698 87.6025 65.548C87.7279 65.9822 87.2166 65.4612 87.149 65.5191C87.149 65.5191 87.2262 65.5191 87.2166 65.4612C86.9175 65.1042 86.7342 65.1911 86.5605 65.1139C86.5701 65.1428 86.5798 65.1621 86.5798 65.1814C86.4158 65.0463 86.4061 64.9884 86.3193 64.8534C86.4061 65.0077 86.4833 65.0753 86.5605 65.1042C86.4351 64.7086 85.5571 64.2648 85.4799 64.014C85.3834 64.0912 85.1519 63.7921 84.8817 63.4833C85.5474 64.0043 85.258 63.5026 85.6632 63.6473C84.8721 62.6729 84.2932 62.9623 83.4924 61.9396L83.1837 61.2546C82.817 61.3897 82.1127 60.4056 82.0355 60.5214C82.0548 60.5889 82.0741 60.6564 82.0548 60.7143C82.0162 60.5889 82.0162 60.5407 82.0355 60.5214C81.968 60.2802 81.7943 60.0004 81.9583 59.9135C81.5435 59.5951 81.1382 58.9101 80.8392 58.9005L81.1286 59.3346C80.1252 58.0804 79.0928 57.7427 78.4078 56.6814L78.8131 56.3244C78.3885 55.5815 77.5299 55.4465 77.2693 54.7132C77.3176 55.0219 77.3948 55.0219 76.8931 54.7711C77.086 55.0219 77.5877 55.3307 77.9544 55.6973L76.951 55.1377L78.2728 56.2569C77.607 55.8806 77.6746 55.8806 77.7325 56.2569C76.8738 55.6394 77.1246 55.2728 76.2756 54.7132C76.073 54.4045 76.4782 54.5299 76.266 54.1632C75.5134 53.6615 75.3397 52.6967 74.674 52.4555C74.5679 52.2722 74.9442 52.6967 75.002 52.5713C74.5486 52.2143 74.2688 51.9056 74.0372 51.9152L74.346 52.3012L74.5293 52.5231L74.346 52.3012C74.0469 51.9924 73.8443 52.0985 73.3329 51.4425C72.9084 51.2013 72.5321 51.2109 72.8988 51.5776C72.7251 51.4618 72.4935 51.0373 72.7251 51.0276C71.8085 50.1303 71.8857 51.0276 71.1524 50.0145C71.0656 49.9567 70.9884 49.8988 71.1331 49.9953C71.1331 49.9953 71.1428 50.0049 71.1524 50.0145C71.2296 50.0628 71.3068 50.1014 71.2972 50.0435C71.0946 49.8119 70.9016 49.6383 70.7279 49.5225C71.5673 50.2172 70.7665 48.9726 71.6638 49.9084C71.7506 49.5997 70.9788 49.2041 70.7472 48.8471C70.149 48.5673 70.4192 49.1076 70.0912 49.0015C70.1587 48.934 69.9657 48.7603 69.7631 48.5288L69.8403 48.8954C69.6473 48.7217 69.4544 48.548 69.1939 48.3744L69.6377 48.6542C69.2518 48.2393 68.8272 47.3999 67.93 46.9368C68.1905 47.0429 68.7115 47.2456 68.2677 46.7246C67.3414 46.1264 68.1326 46.493 67.766 45.972C66.8976 45.3063 67.3704 46.1457 66.2319 45.0168C66.0968 44.901 66.1451 45.1037 66.2319 45.2677C66.2801 45.3159 66.3284 45.3642 66.3863 45.4221C66.3284 45.4028 66.2801 45.3449 66.2319 45.2677C65.4697 44.4765 64.8812 44.2643 64.1383 43.4828C64.4663 43.8108 64.7075 44.081 64.1479 43.7915C64.4663 43.8108 63.5594 43.1354 63.2989 42.7881L63.1445 42.8074C62.9515 42.518 63.2603 42.6916 63.5015 42.8171C63.5208 42.7978 63.598 42.8171 63.733 42.9135C63.7427 42.9521 63.6366 42.8942 63.5015 42.8171C63.4725 42.846 63.5304 42.9232 63.6944 43.039C64.1576 43.2898 64.2637 42.846 63.6269 42.3057C62.8551 41.8426 62.8068 42.1706 62.8551 42.3443C61.9867 41.5242 61.6587 42.1031 60.8386 41.312C60.6263 41.1672 60.1729 40.3182 59.5168 39.8068C59.0344 39.7683 60.2501 40.5498 59.7484 40.4533C58.9862 39.1218 57.1916 39.2569 55.8795 38.0027L56.2268 37.8579C55.8795 37.6264 55.5514 37.3852 55.1269 37.1729C55.2813 37.3176 55.426 37.4817 55.5707 37.636C55.1945 37.4624 54.3551 36.9606 54.7506 36.9028C53.8051 36.6712 53.699 36.4493 52.9657 35.9669C53.7762 36.43 52.9657 36.0151 53.6315 36.1985C52.8403 35.6003 52.7245 35.6581 52.0974 35.3977C52.2421 35.3591 52.0106 35.0407 51.779 34.9152C51.1326 34.7995 50.1485 34.3267 49.3091 34.0469L49.3477 33.9697C48.6434 33.7189 47.9873 33.304 47.2926 32.9663C47.2637 32.9567 47.2348 32.9374 47.2058 32.9277H40.9538C31.3154 32.9277 23.5004 40.7427 23.5004 50.3812V74.1831C24.0214 74.0384 24.5134 73.8744 24.8897 73.7972C24.1179 74.1349 25.1116 74.1638 25.1213 74.3954L25.073 74.4243ZM173.693 127.238L173.712 127.479C173.712 127.325 173.22 127.46 173.693 127.238ZM165.772 129.756L165.569 129.853L164.98 130.094L165.772 129.747V129.756ZM149.582 108.955L149.92 108.974L149.206 109.042L149.582 108.955ZM119.933 131.242L119.885 130.914C120.445 131.039 120.271 131.319 119.933 131.242ZM102.827 83.1365C102.509 83.0015 102.21 82.5577 102.181 82.3164C102.354 82.4419 102.557 82.8278 102.827 83.1365ZM102.731 120.755C102.528 120.629 102.258 120.253 101.93 119.944C102.287 120.06 102.663 120.504 102.731 120.755ZM89.6575 68.5389L89.5321 68.838C89.1172 68.5003 89.4067 68.3363 89.6575 68.5389ZM58.6292 39.8744L59.1309 40.1542C58.8993 40.0384 58.6774 39.8937 58.4459 39.7876L58.6388 39.8647L58.6292 39.8744ZM57.6258 80.2614L57.2013 80.1746L56.8732 80.0106L57.6258 80.2614ZM52.2518 35.6292C52.136 35.7257 52.5123 35.9958 52.0878 35.8125L52.2518 35.6292Z" fill="#15172F"/>
<path d="M139.259 34.2981L139.21 34.3271C139.336 34.5779 139.577 35.0796 139.268 35.3401C139.722 35.7357 140.378 35.6585 140.686 36.3049H140.474C140.522 36.4882 140.87 36.5558 140.947 36.5751C140.986 36.6233 140.889 36.6426 140.841 36.6812C140.85 36.8935 141.082 36.8163 141.207 36.8935L141.072 36.9514C141.256 37.5399 142.249 37.8004 142.693 38.36C142.578 38.2924 142.51 38.4565 142.5 38.5336C143.002 38.4468 143.533 39.0353 143.812 39.1704H143.562C144.189 39.3537 143.61 39.8651 144.237 40.0291L144.169 39.6142C144.285 39.8265 144.497 39.9037 144.584 39.7107C144.681 40.0002 144.382 39.9905 144.652 40.2993C144.584 40.4054 144.372 40.1642 144.362 40.3764L144.565 41.0132C144.44 40.5501 144.99 40.9746 144.951 40.6176C145.096 40.9553 144.604 40.9167 144.565 41.0132C144.565 41.0132 144.565 41.0132 144.565 41.0229C144.565 41.0615 144.604 41.1193 144.758 41.2158C145.076 40.7624 145.144 41.4956 145.279 40.8974C145.935 41.3606 146.244 42.0745 146.948 42.3061C146.832 42.9235 148.019 43.1744 147.566 43.6857C147.894 43.9173 148.241 43.9752 148.608 43.8787C148.579 43.7919 148.444 43.8015 148.357 43.7919C148.54 43.705 148.955 43.9462 149.119 44.0524C148.82 44.0427 148.395 43.9173 148.067 44.0234C148.405 44.1681 148.974 44.2357 149.186 44.2743L149.061 44.6313C149.457 44.583 149.109 45.0172 149.563 44.8917V44.7663C150.026 45.0944 150.209 44.8146 150.682 45.0268L150.585 45.1426C150.711 45.2777 151.116 45.1137 151.097 45.4803L150.798 45.3259C150.701 45.5575 150.865 45.7794 150.904 45.953C151.251 46.0688 151.222 45.654 151.396 45.7118C151.348 45.953 151.348 45.8276 151.126 45.9724C151.521 46.0978 152.042 46.2714 152.428 46.146C152.428 46.1846 152.38 46.2232 152.38 46.2232C152.718 46.4644 153.239 46.2618 153.364 46.5609H153.277C153.412 47.024 154.194 46.6188 154.001 47.188C154.097 47.352 153.682 47.0143 153.789 47.3906C154.165 47.7669 154.3 47.0722 154.628 47.4099C154.58 47.3713 154.58 47.4099 154.541 47.4485C154.831 47.5643 155.236 47.6897 155.574 47.7766C155.574 47.7573 155.554 47.738 155.554 47.709L155.651 47.7958L155.574 47.7766C155.766 48.4037 156.799 48.2107 157.069 48.8764C156.992 48.6352 157.272 48.7028 157.301 48.6159C157.301 48.6159 157.262 48.6545 157.272 48.7028C157.436 48.78 157.522 48.6063 157.609 48.5581C157.609 48.5484 157.609 48.5387 157.6 48.5195C157.686 48.5195 157.696 48.5581 157.744 48.587C157.696 48.5291 157.658 48.5291 157.619 48.5484C157.696 48.7607 158.15 48.5387 158.198 48.6738C158.246 48.558 158.362 48.6352 158.516 48.6931C158.169 48.7221 158.333 48.915 158.13 49.0501C158.564 49.272 158.825 48.7124 159.259 48.9633L159.442 49.2817C159.606 48.9536 159.992 49.2431 160.021 49.1176C160.012 49.079 159.992 49.0404 160.002 48.9922C160.002 49.0404 160.002 49.079 160.021 49.1176C160.07 49.2527 160.166 49.3492 160.099 49.5229C160.311 49.4843 160.552 49.7448 160.687 49.5518L160.523 49.4167C161.083 49.6965 161.565 49.2913 161.961 49.6386L161.816 50.1596C162.067 50.4491 162.453 50.0149 162.636 50.4008C162.588 50.1982 162.559 50.2465 162.79 50.121C162.684 50.0535 162.443 50.1403 162.25 50.0824L162.732 49.8798H162.067C162.395 49.7255 162.356 49.7737 162.298 49.5325C162.723 49.465 162.646 49.8895 163.06 49.7834C163.176 49.8895 162.993 50.0439 163.118 50.1886C163.485 50.0825 163.659 50.7482 163.958 50.4973C164.025 50.5648 163.813 50.4973 163.813 50.6131C164.045 50.6035 164.189 50.642 164.286 50.4973L164.112 50.4105L164.016 50.3622L164.112 50.4105C164.276 50.4491 164.344 50.2368 164.623 50.4105C164.826 50.314 164.971 50.0728 164.787 50.0342C164.874 50.0149 165.019 50.1886 164.923 50.3333C165.405 50.4201 165.251 49.8027 165.675 50.1307C165.714 50.1211 165.752 50.1211 165.685 50.1307H165.675C165.675 50.1307 165.608 50.1596 165.617 50.1886C165.723 50.2465 165.82 50.2658 165.907 50.2465C165.492 50.2272 165.965 50.6999 165.492 50.5166C165.492 50.8061 165.849 50.642 165.984 50.7771C166.254 50.6227 166.08 50.3719 166.215 50.2561C166.196 50.3429 166.293 50.3622 166.408 50.4201L166.331 50.1886C166.428 50.2079 166.524 50.2272 166.65 50.1886L166.437 50.2465C166.64 50.3237 166.92 50.7192 167.315 50.5745C167.209 50.642 166.978 50.7868 167.219 50.9411C167.653 50.8736 167.306 51.0472 167.518 51.2499C167.933 51.2595 167.634 50.8736 168.232 51.0666C168.299 51.0666 168.251 50.9411 168.193 50.8736C168.164 50.8736 168.145 50.8543 168.116 50.8447C168.135 50.8254 168.164 50.8446 168.193 50.8736C168.598 51.0087 168.84 50.8736 169.226 51.0666C169.052 50.999 168.927 50.9122 169.177 50.8254C169.062 50.999 169.496 51.0183 169.64 51.1437L169.689 51.0376C169.805 51.163 169.669 51.2016 169.563 51.2306C169.563 51.2595 169.525 51.2885 169.467 51.2885C169.457 51.2595 169.505 51.2499 169.563 51.2306C169.563 51.192 169.534 51.1534 169.457 51.163C169.255 51.2306 169.284 51.6551 169.602 51.7226C169.949 51.6454 169.92 51.356 169.872 51.2402C170.316 51.3946 170.335 50.7771 170.75 50.9797C170.846 50.9797 171.146 51.4525 171.464 51.52C171.638 51.2885 171.078 51.2981 171.271 51.1051C171.763 51.7902 172.361 50.7771 173.027 51.1437L172.931 51.4525C173.095 51.4718 173.249 51.4911 173.432 51.4525L173.201 51.2885C173.365 51.2209 173.741 51.2885 173.616 51.5104C173.982 51.2595 174.05 51.4042 174.397 51.4814C174.04 51.4525 174.397 51.4428 174.127 51.5972C174.503 51.7419 174.532 51.6455 174.793 51.5779C174.754 51.684 174.889 51.8481 174.995 51.8481C175.236 51.6551 175.651 51.6937 175.989 51.5875V51.6744C176.558 51.5779 177.195 51.906 177.755 51.6069C177.755 51.5876 177.735 51.5779 177.726 51.5683L177.639 51.5393C177.533 51.5297 177.407 51.5586 177.417 51.4621L177.639 51.5393L177.726 51.5683H177.745C177.533 51.2981 178.179 51.3367 178.343 51.2016C178.382 51.2692 178.411 51.3946 178.517 51.3946C178.507 51.1245 178.729 51.2402 178.797 51.1051C178.999 51.1823 178.797 51.4332 179.134 51.3946C179.26 51.3657 179.269 51.2209 179.24 51.1148C179.24 51.0762 179.221 51.0473 179.211 51.028C179.221 51.0473 179.24 51.0762 179.24 51.1148C179.327 51.2499 179.549 51.3367 179.732 51.356C179.675 51.4332 179.568 51.356 179.53 51.3657C179.52 51.5104 179.636 51.4525 179.646 51.6261C179.81 51.6261 179.684 51.3656 179.896 51.4428L179.732 51.6744C179.819 51.7226 179.916 51.6262 179.945 51.6069C179.829 51.6647 179.868 51.8866 179.896 52.0121C180.35 51.8191 179.935 51.4332 179.935 51.192C180.388 51.327 180.697 51.0183 181.035 50.9797L180.996 51.2306C181.16 51.1823 181.228 51.1148 181.276 50.999H181.209L181.315 50.8639C181.305 50.9122 181.286 50.9604 181.276 50.999L181.527 50.9604C181.392 51.0762 181.353 51.163 181.363 51.356C181.623 51.2499 182 51.2499 182.029 50.9122V50.9701C182.308 51.0183 182.829 51.0087 183.042 51.0473V50.4105C183.042 40.772 175.227 32.957 165.588 32.957H137.676C138.236 33.4201 138.815 33.6806 139.288 34.2885L139.259 34.2981ZM174.677 51.2402L174.658 51.4718C174.677 51.3271 174.503 51.2692 174.677 51.2402ZM171.802 50.9797L171.724 51.0087L171.503 51.0376L171.802 50.9797ZM156.017 47.6511C156.23 47.6511 156.085 47.9406 155.95 47.9406L156.017 47.6511ZM149.707 44.6602C149.621 44.6506 149.553 44.4672 149.428 44.3611C149.601 44.3129 149.717 44.4962 149.707 44.6602Z" fill="#15172F"/>
<path d="M24.3978 116.992C24.5811 116.934 24.7837 116.896 25.0153 116.905L24.9188 116.944C24.9188 116.944 25.0056 116.992 25.0539 117.011C26.038 117.011 27.408 116.645 28.2377 116.452C27.4273 116.79 28.45 116.819 28.4403 117.05C28.5368 117.031 27.5334 117.031 26.2792 117.04C26.366 117.069 26.4432 117.108 26.4721 117.195C27.0124 117.311 27.4659 117.253 27.9869 117.185C28.5079 117.108 29.0964 117.021 29.8779 117.175C29.7718 117.195 29.5692 117.233 29.6464 117.33C30.1963 117.426 30.7173 117.272 30.8524 117.137C30.9778 117.378 32.1452 117.6 32.7338 117.6C33.2644 117.475 33.2065 117.378 34.1327 117.523L33.6986 117.629C34.7695 117.918 34.6344 117.475 35.5028 117.793C35.1554 117.658 35.0975 117.822 35.358 117.909C36.5062 118.053 36.5448 117.967 37.4227 117.812L37.2201 118.034C38.2235 118.034 40.0856 118.295 40.0181 118.623C39.9409 118.324 40.4812 118.401 41.1373 118.584C41.803 118.758 42.5555 119.144 42.9608 119.279C42.681 119.192 42.5941 119.279 42.5459 119.327C43.4432 119.472 44.3211 119.742 45.1509 120.137C45.971 120.543 46.7911 120.948 47.6112 121.353L47.698 121.826C48.5567 122.241 49.1645 121.652 50.0714 122.173L49.6566 122.154C51.3064 122.993 51.9528 123.37 53.1878 124.219L53.0237 124.421C53.5447 124.595 54.114 124.933 54.6253 125.135C55.3007 126.303 58.8126 127.547 60.1634 129.458L60.5686 129.149C61.2439 129.66 62.1509 130.249 62.2473 130.779L62.1026 130.664C61.8132 130.905 62.7683 131.185 63.135 131.57C63.4727 131.783 63.9358 131.841 63.7139 131.57C65.3251 133.143 68.0555 135.034 68.8563 136.24C70.6894 137.523 72.2332 138.286 74.0856 139.82L74.0277 139.849C74.6162 140.408 75.8126 141.508 75.5617 141.826C76.98 142.82 78.1957 143.052 79.7297 144.422L79.2763 144.277C79.6525 144.653 80.434 144.991 80.627 145.078C80.7717 145.194 80.6174 145.174 80.5595 145.213C80.8779 145.618 81.2348 145.618 81.5822 145.811L81.3699 145.83C81.9584 146.419 82.8557 146.969 83.8205 147.538C84.795 148.078 85.8273 148.638 86.6957 149.246C86.3483 149.072 86.4352 149.313 86.5317 149.448C87.5061 149.526 89.4357 150.896 90.2558 151.224L89.6962 151.098C91.3268 151.696 90.7189 152.275 92.3591 152.845C92.1179 152.613 91.8671 152.391 91.6355 152.15C92.1951 152.565 92.7643 152.758 92.7065 152.507C93.3336 153.018 92.6293 152.854 93.6713 153.472C93.6616 153.607 92.8608 153.134 93.131 153.472L94.4624 154.572C93.5458 153.809 95.3886 154.678 94.8001 154.118C95.6009 154.678 94.4142 154.427 94.4624 154.562C94.4913 154.591 94.5203 154.61 94.5589 154.639L94.4624 154.562C94.4913 154.62 94.6747 154.716 95.1957 154.938C95.3211 154.369 96.4596 155.536 95.9482 154.668C96.4885 154.919 96.9902 155.189 97.4726 155.459C97.9647 155.71 98.4471 155.961 98.9198 156.202C99.8557 156.694 100.782 157.119 101.785 157.36C102.075 157.765 103.011 158.161 103.84 158.479C104.67 158.788 105.365 159.077 105.153 159.376C105.702 159.569 106.214 159.714 106.677 159.801C107.15 159.868 107.574 159.888 107.96 159.849C107.758 159.733 107.449 159.733 107.208 159.695C107.555 159.608 108.896 159.975 109.446 160.148C108.674 160.09 107.458 159.868 106.793 159.955C107.825 160.187 109.311 160.36 109.899 160.438L110.063 160.862C110.99 160.824 110.719 161.325 111.675 161.19L111.54 161.045C113.122 161.441 113.209 161.152 114.704 161.383L114.608 161.509C115.109 161.663 115.929 161.48 116.364 161.895L115.389 161.721C115.437 161.991 116.161 162.242 116.47 162.435C117.512 162.57 116.904 162.097 117.425 162.165C117.608 162.425 117.454 162.309 117.058 162.464C118.235 162.58 119.818 162.686 120.676 162.512C120.725 162.56 120.657 162.599 120.657 162.599C121.863 162.821 122.973 162.454 123.687 162.744H123.445C124.381 163.216 125.973 162.666 126.137 163.245C126.591 163.38 125.086 163.168 125.809 163.496C127.256 163.757 126.803 163.043 128.067 163.284C127.893 163.255 127.951 163.294 127.883 163.342C128.347 163.342 128.887 163.361 129.437 163.371C129.987 163.342 130.546 163.322 131.058 163.293C131.019 163.274 130.971 163.265 130.932 163.245L131.28 163.284C131.212 163.284 131.125 163.284 131.058 163.293C131.685 163.544 132.64 163.515 133.624 163.506C134.608 163.458 135.602 163.38 136.335 163.631C135.862 163.458 136.683 163.38 136.683 163.293C136.683 163.293 136.625 163.351 136.683 163.38C137.204 163.371 137.261 163.178 137.445 163.091C137.416 163.091 137.397 163.072 137.368 163.062C137.599 163.014 137.657 163.052 137.831 163.062C137.628 163.033 137.522 163.062 137.435 163.091C137.879 163.265 138.853 162.773 139.133 162.859C139.133 162.734 139.548 162.724 140.011 162.666C139.104 162.908 139.741 162.965 139.345 163.207C140.744 163.11 140.87 162.493 142.317 162.406L143.137 162.502C143.243 162.116 144.584 162.039 144.536 161.904C144.459 161.885 144.391 161.866 144.343 161.827C144.478 161.856 144.526 161.885 144.536 161.904C144.797 161.972 145.173 161.981 145.144 162.165C145.704 161.981 146.591 162.02 146.784 161.74C146.591 161.74 146.398 161.769 146.205 161.769C147.99 161.518 148.916 160.766 150.315 160.698L150.421 161.229C151.377 161.21 151.984 160.486 152.843 160.592C152.525 160.496 152.486 160.563 152.998 160.225C152.65 160.283 152.071 160.592 151.502 160.746L152.612 160.1L150.798 160.775C151.541 160.341 151.492 160.409 151.116 160.293C152.197 159.811 152.399 160.196 153.412 159.695C153.818 159.656 153.48 159.955 153.953 159.936C154.86 159.502 155.873 159.724 156.471 159.241C156.702 159.222 156.085 159.386 156.181 159.492C156.78 159.241 157.223 159.116 157.349 158.904L156.809 159.019L156.5 159.087L156.809 159.019C157.272 158.884 157.272 158.643 158.188 158.479C158.651 158.19 158.844 157.842 158.294 158.026C158.507 157.929 159.037 157.871 158.921 158.093C160.272 157.591 159.365 157.302 160.745 157.051C160.851 156.993 160.948 156.945 160.774 157.051C160.764 157.051 160.755 157.051 160.745 157.051C160.668 157.099 160.581 157.157 160.639 157.177C160.977 157.09 161.247 156.984 161.449 156.868C160.32 157.35 161.961 157.138 160.571 157.563C160.822 157.775 161.623 157.225 162.096 157.167C162.684 156.733 162.019 156.752 162.298 156.492C162.327 156.578 162.597 156.482 162.935 156.376L162.54 156.308C162.81 156.192 163.07 156.086 163.379 155.893L162.877 156.202C163.475 155.99 164.508 155.922 165.453 155.295C165.212 155.498 164.739 155.884 165.473 155.7C166.544 155.093 165.772 155.671 166.476 155.546C167.576 155.006 166.515 155.112 168.203 154.465C168.377 154.379 168.164 154.34 167.962 154.369C167.885 154.398 167.817 154.427 167.74 154.456C167.778 154.408 167.875 154.388 167.962 154.369C169.042 153.964 169.602 153.578 170.605 153.211C170.219 153.337 169.998 153.366 170.509 153.028C170.316 153.327 171.454 152.729 171.917 152.623L171.975 152.468C172.361 152.401 172.024 152.623 171.773 152.796C171.773 152.825 171.725 152.883 171.561 152.98C171.512 152.98 171.628 152.893 171.773 152.796C171.773 152.758 171.657 152.777 171.454 152.883C170.972 153.231 171.348 153.51 172.197 153.115C173.046 152.565 172.767 152.381 172.564 152.362C173.809 151.851 173.452 151.359 174.648 150.905C174.899 150.761 175.96 150.683 176.799 150.269C177.099 149.815 175.7 150.664 176.066 150.22C176.886 150.114 177.542 149.651 178.218 149.13C178.893 148.59 179.588 147.982 180.562 147.635L180.504 148.03C180.919 147.808 181.324 147.586 181.768 147.287L181.083 147.5C181.459 147.21 182.424 146.679 182.241 147.065C182.55 146.747 182.781 146.564 183.003 146.419V124.74C182.337 125.039 181.585 125.405 181.035 125.569L181.199 125.357C180.369 125.83 179.684 126.283 179.038 126.611C178.382 126.939 177.793 127.2 177.195 127.403C177.156 127.48 177.137 127.229 177.33 127.113C176.549 127.673 175.246 127.412 175.188 127.962L175.526 127.866C174.658 128.174 173.78 128.589 172.902 129.033C172.024 129.467 171.155 129.969 170.239 130.268C169.718 130.133 171.281 129.901 170.789 129.699C169.496 129.998 168.299 130.635 166.9 130.982C167.113 130.876 167.055 130.857 167.151 130.808C165.733 131.069 167.393 131.04 166.225 131.368C166.244 131.214 166.177 131.194 165.772 131.242L165.501 131.57C165.434 131.551 165.395 131.378 165.54 131.252C165.116 131.706 163.533 132.005 163.205 132.4C163.08 132.362 163.292 132.014 163.109 131.956C162.472 132.034 162.067 132.236 161.681 132.448C161.71 132.593 161.469 132.651 161.16 132.699C160.928 132.796 160.677 132.863 160.359 132.892C160.6 132.796 160.899 132.748 161.16 132.699C161.343 132.622 161.507 132.535 161.681 132.448C161.189 132.362 160.137 132.641 160.349 132.555C159.211 132.728 160.214 132.757 159.404 133.133L160.33 133.047L158.767 133.49L159.365 133.201C158.613 133.269 157.928 133.693 157.079 133.886L157.503 133.954L156.558 134.282C156.394 133.973 155.303 134.494 155.757 133.992C153.914 134.127 152.824 134.745 151.155 135.034C151.444 134.986 151.319 134.938 151.367 134.87C150.393 134.947 149.833 135.217 149.273 135.488C149.379 135.362 149.601 135.295 149.601 135.198C148.453 135.381 148.936 135.517 147.662 135.719C148 135.546 147.884 135.488 147.527 135.478C147.595 135.603 147.305 135.71 147.074 135.767C147.971 135.015 145.617 135.603 146.176 135.015C146.128 135.16 144.17 135.613 144.758 135.835L145.105 135.758C145.163 135.941 144.681 135.903 144.324 135.941C144.073 135.999 143.841 136.038 144.179 135.96C144.227 135.951 144.276 135.941 144.324 135.941C144.507 135.893 144.7 135.835 144.7 135.796C143.803 135.97 142.867 136.067 141.912 136.105C140.947 136.095 139.963 136.076 138.931 136.144C139.114 136.076 139.934 135.96 139.413 135.903C137.387 135.758 136.2 136.202 134.126 136.115C134.068 135.661 136.345 136.298 136.451 135.825C135.37 135.854 134.28 135.748 133.151 135.729C132.023 135.671 130.855 135.719 129.639 135.613C128.916 134.822 127.276 135.42 125.896 134.648C125.992 134.87 125.23 134.851 124.449 134.639L124.333 134.6C123.947 134.484 123.571 134.359 123.272 134.253L124.333 134.6C124.333 134.6 124.41 134.619 124.449 134.639C124.757 134.552 123.937 134.301 124.198 134.253C123.465 134.243 121.458 133.741 121.66 133.365C121.371 133.683 120.194 132.95 119.557 132.989C119.75 133.105 119.924 133.23 120.088 133.365C119.856 133.269 119.634 133.124 119.412 132.998C119.451 132.979 119.509 132.989 119.557 132.979C118.776 132.506 117.734 132.342 116.721 131.812C116.962 132.14 115.939 131.667 115.399 131.493C115.331 131.484 115.254 131.455 115.206 131.435C115.254 131.445 115.322 131.464 115.399 131.493C115.476 131.513 115.524 131.513 115.505 131.484C115.283 131.146 114.26 131.069 113.739 130.664C113.517 130.451 113.903 130.49 113.498 130.258C113.411 130.413 111.771 129.815 111.318 129.322C111.578 129.467 111.626 129.38 111.819 129.409C110.43 128.801 109.147 127.895 107.825 127.055C106.59 126.119 105.355 125.174 104.024 124.392L104.641 124.479C103.368 123.032 103.329 124.122 102.2 123.109C100.676 121.7 99.1417 120.263 97.7235 118.729C96.9999 117.976 96.2763 117.233 95.5333 116.519C94.8194 115.777 94.1054 115.063 93.3625 114.387C93.0924 114.242 93.4011 114.58 93.3529 114.706C93.131 114.435 93.2467 114.185 92.8029 113.963L92.7643 114.156C91.7802 112.564 88.9244 110.528 88.4902 109.081C87.1202 107.981 86.6281 106.765 84.9108 105.482C84.5634 104.893 85.644 105.858 85.0651 105.173L83.5504 103.909L83.6372 103.967C82.0163 102.906 80.6367 99.9633 78.7456 98.5064L78.8325 98.5643C78.9482 98.5257 78.7167 98.0722 78.4176 97.831C78.2632 97.7924 78.4176 98.0047 78.5141 98.2362C76.8835 96.9048 76.5459 96.5961 75.3398 95.4576C75.967 95.8339 74.9636 94.8883 75.0793 94.6664C74.6548 94.4831 75.0986 95.0041 74.2882 94.4542C73.2462 93.5569 72.4358 92.5631 71.635 91.743C71.1622 91.579 70.7184 91.1738 70.5254 91.3571C69.3001 90.4116 68.5669 89.9678 67.0811 88.7907V88.6943C66.4829 88.675 65.8268 87.6426 65.4312 87.5944C65.5374 87.5268 65.7303 87.604 65.74 87.5075L64.9681 87.112C65.354 87.2567 65.7207 87.1409 65.1514 86.7067C64.4085 86.4848 65.2383 86.9479 64.833 86.8997L64.8137 86.5234C64.3313 86.234 64.0226 86.4366 64.534 86.89C62.9999 85.7709 61.2536 85.0473 59.8257 84.1693L60.0765 84.0825C59.652 83.8799 59.1696 83.629 58.7354 83.3685C58.3013 83.108 57.896 82.915 57.6838 82.7124C57.6355 82.751 57.3847 82.751 57.4908 82.8668C56.4488 82.6642 57.3654 82.5484 56.5164 82.3361C56.4392 82.3168 56.362 82.2975 56.2945 82.2879C56.3813 82.3072 56.4585 82.3265 56.5164 82.3361C56.7576 82.394 56.9795 82.4519 57.0567 82.3844L54.8858 81.6608C54.9148 81.5354 53.8052 80.5898 52.8211 80.4355C52.7536 80.503 52.9755 80.696 53.2071 80.7925L53.4483 80.8407L53.2071 80.7925L52.5992 80.6574L52.2712 80.1846L51.3257 80.1653L51.3064 80.2232L51.1424 80.1557H51.3257L51.4029 79.8855C50.7564 79.7215 50.3995 79.9723 49.9074 79.7794C48.0839 78.9496 48.5084 78.9593 47.2059 78.3611C46.9068 78.8435 45.0158 77.7822 44.572 78.0717C44.1378 77.8594 43.6361 77.6665 43.1055 77.4928C42.8353 77.406 42.5555 77.3191 42.2661 77.2419C41.9767 77.1937 41.6776 77.1358 41.3688 77.0876C40.1532 76.885 38.8507 76.7113 37.635 76.4604L37.8473 76.4411C36.8246 76.0456 36.6026 76.5955 35.4835 76.4219L35.7826 76.364C34.345 75.978 31.74 76.0649 30.3507 76.1999C30.6401 76.1421 30.4954 75.9587 30.0516 75.9395C29.6657 76.0456 30.4086 76.3061 29.6271 76.2192C29.82 76.1613 29.6753 76.0456 29.492 76.0456L28.7201 76.3254C27.7071 76.2482 26.6072 76.171 25.4977 76.1421C24.9381 76.1421 24.3785 76.0938 23.8285 76.1517C23.7031 76.1614 23.5873 76.1903 23.4619 76.1999V116.857C23.5198 116.867 23.568 116.886 23.5873 116.915C23.8864 116.896 24.089 116.915 24.4074 116.915L24.3978 116.992ZM177.427 149.342L177.243 149.487L176.703 149.844L177.427 149.342ZM169.776 130.191L169.612 130.471L169.081 130.49L169.776 130.191ZM132.322 163.322L132.167 163.033C132.756 162.946 132.679 163.274 132.322 163.322ZM111.742 160.92C111.501 160.901 111.086 160.679 110.642 160.553C111.028 160.505 111.559 160.727 111.742 160.92ZM59.9221 128.705L59.5266 128.531L59.2371 128.3L59.9221 128.705Z" fill="#15172F"/>
<path d="M93.8065 34.5956C93.681 34.4413 93.681 34.5474 93.6039 34.5474C93.9608 35.1166 94.3468 35.3289 94.7327 35.5315C94.5976 35.5315 94.4722 35.435 94.4046 35.4832C94.8967 36.1007 94.8581 35.7341 95.4949 36.3323C95.2344 36.2358 95.2247 36.3419 95.3502 36.5445C95.4274 36.4384 95.6203 36.5349 95.7554 36.6314C94.8099 36.5638 96.1703 37.5576 95.4852 37.5865C95.6203 37.5287 96.7202 38.3777 96.6816 37.9049L96.4886 37.7602C96.6141 37.6155 96.7684 37.9146 96.9325 38.0882C97.0772 38.1944 97.193 38.3005 97 38.1558C96.971 38.1365 96.9518 38.1172 96.9325 38.0882C96.8263 38.0111 96.7105 37.9339 96.6816 37.9628C97.6271 38.7732 98.3411 39.8635 99.3927 40.7897C99.2576 40.7511 98.7945 40.4134 98.9875 40.7125C99.8269 41.8124 100.618 42.179 101.699 43.0667C101.419 43.4044 100.628 42.015 100.29 42.2562C101.361 43.2596 102.499 44.263 103.773 45.2761C103.715 46.1251 105.075 46.2216 105.432 47.2829C105.519 47.061 105.925 47.3697 106.31 47.746L106.368 47.8039C106.552 47.9969 106.735 48.1898 106.87 48.3538C106.696 48.1802 106.532 47.9872 106.368 47.8039L106.31 47.746C106.06 47.7364 106.455 48.1512 106.262 48.1223C106.735 48.3249 107.796 49.2125 107.468 49.473C107.835 49.2704 108.201 50.1966 108.684 50.2642C108.607 50.1387 108.539 50.0037 108.501 49.8493L108.79 50.2834C108.79 50.2834 108.722 50.2835 108.684 50.2738C109.022 50.7948 109.668 51.1132 110.16 51.7017C110.131 51.3351 110.797 52.1166 111.077 52.2227C111.009 52.1841 110.864 52.1069 110.874 52.1552C110.893 52.4736 111.646 52.599 111.877 52.9753C111.964 53.1682 111.684 53.12 111.906 53.3419C112.032 53.2068 113.016 53.834 113.199 54.2681C113.054 54.1427 112.987 54.2102 112.852 54.1813C114.589 55.2426 115.978 56.9503 117.83 57.9344H117.358C118.12 59.0536 118.332 58.0791 119.094 58.7449C120.136 59.6614 121.207 60.6069 122.268 61.5428C123.349 62.4497 124.478 63.2891 125.645 63.9934C125.858 64.032 125.607 63.8391 125.645 63.7136C125.819 63.8777 125.732 64.1285 126.089 64.1671L126.118 63.9934C126.928 65.0258 129.263 65.7108 129.707 66.7335C130.865 67.1001 131.338 67.9492 132.795 68.3061C133.123 68.6535 132.196 68.3061 132.717 68.6245L134.01 69.0394H133.933C135.274 69.2323 136.712 71.0655 138.323 71.4514H138.255C138.178 71.5286 138.419 71.8084 138.68 71.8663C138.796 71.8277 138.651 71.7216 138.545 71.5768C139.944 71.9628 140.233 72.0786 141.294 72.4934C140.783 72.4548 141.651 72.8118 141.613 73.0434C141.951 73.0048 141.545 72.7636 142.211 72.8697C143.099 73.1688 143.851 73.6609 144.565 74.0082C144.932 73.9117 145.318 74.0757 145.414 73.8442C146.437 74.1143 147.016 74.2301 148.27 74.5388V74.6353C148.695 74.3941 149.331 75.0405 149.611 74.9151C149.553 75.0212 149.409 75.0309 149.428 75.1273L150.026 75.1563C149.737 75.1949 149.515 75.4554 149.987 75.6001C150.528 75.494 149.881 75.4168 150.161 75.2914L150.248 75.6194C150.634 75.6676 150.788 75.3589 150.354 75.1756C150.981 75.3203 151.628 75.3396 152.245 75.4071C152.863 75.465 153.451 75.5519 154.04 75.5905L153.895 75.7738C154.551 75.7448 155.419 75.8027 155.786 75.9957C155.805 75.9378 155.969 75.851 155.873 75.7738C156.654 75.5615 155.931 76.1018 156.789 75.8703C156.577 75.9282 156.307 75.9474 156.268 76.0632L157.851 75.9282C157.851 76.0536 158.806 76.4974 159.481 76.343C159.51 76.2658 159.317 76.1501 159.153 76.1308L158.979 76.1597L159.153 76.1308L159.578 76.0536L159.896 76.3913L160.523 76.0922V76.0246H160.649L160.523 76.0825V76.3623C160.986 76.3044 161.17 75.9378 161.536 75.9668C162.916 76.1404 162.636 76.2369 163.62 76.507C163.668 76.2369 164.064 76.2465 164.469 76.2658C164.874 76.2658 165.309 76.2755 165.424 76.0825C166.756 76.3913 168.647 76.0729 170.364 76.015L170.229 76.0825C170.991 76.2465 171.02 75.5712 171.821 75.5905L171.638 75.6966C172.68 75.851 174.436 75.4072 175.352 75.0309C175.169 75.1467 175.294 75.301 175.603 75.2238C175.844 75.0791 175.294 74.8958 175.844 74.9055C175.719 74.9826 175.844 75.0791 175.97 75.0598L176.452 74.7029C177.861 74.6257 179.54 74.6064 180.929 74.124C181.209 74.1626 181.035 74.2976 180.997 74.4037C181.691 74.2204 182.367 73.9696 183.023 73.738V51.8754C183.023 51.8754 182.936 51.8175 182.868 51.7693C182.907 51.7307 182.965 51.7114 183.023 51.6921V51.5474C182.849 51.6149 182.704 51.8754 182.511 51.914C182.492 51.7114 182.772 51.7982 182.666 51.5667C182.473 51.5667 182.338 51.7307 182.174 51.8175V51.7017C181.691 51.5184 182.067 52.271 181.691 51.9526C181.71 52.0201 181.672 52.0973 181.701 52.1552C181.71 52.1745 181.73 52.1938 181.759 52.2131C181.73 52.1938 181.71 52.1745 181.701 52.1552C181.556 52.0587 181.247 51.9043 181.518 51.721C181.353 51.7403 181.189 51.8754 181.122 52.0008C181.276 52.1552 181.305 52.0684 181.382 52.271C181.17 52.3385 180.958 52.3868 180.736 52.4446C180.659 52.4446 180.775 52.3289 180.871 52.3289C180.041 51.7982 179.356 52.9463 178.43 52.3096C178.536 52.4832 178.382 52.4736 178.305 52.6086C178.015 52.57 177.591 52.6569 177.33 52.5604L177.407 52.4253C176.751 52.6376 176.288 52.8692 175.844 52.7727C175.825 52.8306 175.844 52.5894 175.922 52.5604C175.603 52.792 175.188 52.0587 175.111 52.5508L175.237 52.5894C174.59 52.5122 173.876 52.8595 173.201 52.9174C173.046 52.6279 173.587 52.8885 173.452 52.5411C172.989 52.4254 172.516 52.6762 172.014 52.5701C172.101 52.5315 172.082 52.5025 172.12 52.4832C171.628 52.2903 172.168 52.7823 171.744 52.7244C171.773 52.5797 171.754 52.5411 171.619 52.4639L171.483 52.6858C171.483 52.6858 171.483 52.4639 171.541 52.406C171.339 52.6955 170.789 52.4446 170.625 52.7148C170.596 52.6376 170.712 52.3771 170.663 52.2613C170.441 52.1552 170.287 52.2613 170.123 52.3578C170.113 52.5025 170.027 52.4929 169.911 52.4639C169.824 52.4929 169.728 52.4929 169.621 52.435C169.718 52.406 169.824 52.435 169.911 52.4639C169.978 52.4446 170.046 52.3964 170.123 52.3578C169.978 52.1456 169.592 52.1456 169.679 52.1166C169.284 51.9912 169.602 52.271 169.284 52.4253L169.592 52.5797L169.014 52.599L169.255 52.4736C169.004 52.3385 168.714 52.5701 168.406 52.5315L168.531 52.7051L168.174 52.7823C168.174 52.435 167.74 52.6665 167.972 52.2903C167.344 52.078 166.891 52.406 166.293 52.3482C166.399 52.3674 166.37 52.2903 166.389 52.242C166.061 52.107 165.83 52.242 165.598 52.3868C165.656 52.2903 165.743 52.271 165.762 52.1745C165.357 52.107 165.482 52.3289 165.019 52.3482C165.164 52.2324 165.145 52.1455 165.019 52.0973C165.019 52.2227 164.894 52.2903 164.807 52.3192C165.26 51.7017 164.363 51.9622 164.672 51.4702C164.624 51.6052 163.881 51.7886 164.025 52.0877L164.161 52.0587C164.141 52.242 163.987 52.1455 163.861 52.1359C163.765 52.1648 163.678 52.1648 163.804 52.1359C163.823 52.1359 163.842 52.1359 163.861 52.1359C163.929 52.1166 164.006 52.0877 164.016 52.0491C163.331 52.1938 162.733 51.7789 161.99 51.7693C162.067 51.721 162.376 51.6728 162.212 51.5667C161.546 51.2965 161.054 51.5281 160.301 51.5184C160.388 51.0939 161.083 51.6535 161.208 51.2579C160.456 51.1518 159.636 51.1518 158.777 51.0457C158.7 50.3413 157.909 51.0167 157.571 50.3703C157.542 50.5922 157.272 50.5729 157.002 50.4861L156.963 50.4668L156.606 50.3028L156.963 50.4668L157.002 50.4861C157.156 50.3606 156.867 50.2545 157.002 50.158C156.703 50.2545 155.979 50.0905 156.162 49.7142C155.95 50.0808 155.68 49.4827 155.381 49.666C155.439 49.7335 155.487 49.8107 155.516 49.9168L155.313 49.7046C155.313 49.7046 155.361 49.6756 155.381 49.666C155.149 49.3958 154.725 49.4634 154.416 49.1836C154.435 49.473 154.011 49.1257 153.827 49.1643C153.876 49.1643 153.962 49.1643 153.962 49.1257C153.943 48.8748 153.461 49.1064 153.316 48.8941C153.258 48.7687 153.441 48.6915 153.297 48.6047C153.22 48.7687 152.573 48.7012 152.467 48.4117C152.554 48.46 152.602 48.3731 152.689 48.3442C151.618 48.1126 150.817 47.225 149.688 47.0127L150.007 46.8487C149.621 46.183 149.351 47.0706 148.926 46.7329C147.788 45.7585 146.736 44.6393 145.53 43.8674C145.395 43.8674 145.511 43.9929 145.443 44.099C145.366 43.9929 145.501 43.771 145.27 43.7903L145.202 43.9447C144.98 43.1824 143.504 43.0184 143.62 42.1501C142.983 41.9282 142.964 41.2914 142.144 41.0695C142.066 40.7994 142.539 41.0502 142.327 40.809L141.632 40.5196H141.68C140.822 40.4231 140.831 38.8601 139.992 38.5031H140.031C140.127 38.4452 140.108 38.233 139.982 38.1558C139.896 38.1751 139.924 38.2716 139.905 38.397C139.249 37.9821 139.114 37.8663 138.709 37.4322C138.998 37.519 138.67 37.1524 138.825 36.9787C138.612 36.9594 138.699 37.2102 138.381 37.0173C138.043 36.6507 137.908 36.1683 137.715 35.8016C137.445 35.8016 137.348 35.599 137.146 35.7534C136.76 35.3385 136.519 35.1263 136.104 34.5763L136.162 34.5088C135.795 34.5474 135.94 33.9299 135.708 33.9396C135.814 33.8913 135.892 33.9202 135.949 33.8527L135.679 33.6598C135.843 33.7176 136.142 33.6115 136.017 33.38C135.679 33.3028 135.94 33.5247 135.708 33.5343L135.901 33.2931C135.756 33.1484 135.448 33.2931 135.515 33.5536C135.371 33.3606 135.207 33.1677 135.052 32.9844H92.1084C92.6487 33.5922 93.2662 33.9588 93.8161 34.6246L93.8065 34.5956ZM173.027 52.6183L172.94 52.8306L172.767 52.6858L173.027 52.6183Z" fill="#15172F"/>
<path d="M182.405 148.185C181.189 148.774 180.138 149.681 178.825 150.337C179.009 150.182 178.951 150.183 179.038 150.105C177.677 150.665 179.327 150.279 178.227 150.848C178.218 150.694 178.14 150.684 177.755 150.819L177.552 151.196C177.484 151.196 177.407 151.032 177.523 150.877C177.195 151.408 175.661 152.016 175.42 152.479C175.285 152.469 175.42 152.083 175.227 152.064C174.619 152.305 174.262 152.595 173.934 152.894C173.992 153.029 173.77 153.135 173.471 153.27C173.268 153.415 173.037 153.55 172.728 153.646C172.95 153.492 173.23 153.376 173.471 153.27C173.635 153.154 173.779 153.029 173.934 152.894C173.432 152.923 172.448 153.463 172.651 153.318C171.56 153.772 172.564 153.55 171.84 154.109L172.728 153.801L171.281 154.611L171.802 154.186C171.078 154.447 170.48 154.978 169.679 155.354L170.113 155.335L169.245 155.856C169.013 155.585 168.039 156.338 168.377 155.74C166.621 156.406 165.665 157.226 164.102 157.94C164.373 157.824 164.247 157.805 164.276 157.727C163.331 158.055 162.839 158.432 162.346 158.808C162.424 158.663 162.636 158.547 162.597 158.461C161.488 158.875 161.999 158.895 160.812 159.464C161.102 159.203 160.967 159.175 160.619 159.261C160.716 159.358 160.465 159.551 160.253 159.667C160.938 158.682 158.796 159.927 159.192 159.203C159.192 159.368 157.358 160.284 157.995 160.361L158.314 160.197C158.41 160.361 157.928 160.448 157.59 160.574C157.358 160.699 157.136 160.786 157.455 160.631C157.493 160.612 157.542 160.593 157.59 160.574C157.764 160.487 157.937 160.381 157.928 160.342C157.088 160.738 156.181 161.046 155.255 161.355C154.319 161.625 153.345 161.886 152.361 162.252C152.515 162.137 153.287 161.789 152.756 161.876C150.749 162.368 149.659 162.937 147.652 163.574C147.469 163.169 149.842 163.015 149.823 162.59C148.762 162.889 147.691 163.198 146.591 163.516C145.472 163.786 144.333 164.076 143.137 164.394C142.211 163.941 140.793 164.944 139.22 164.635C139.384 164.819 138.641 165.012 137.811 165.07H137.686C137.281 165.089 136.875 165.098 136.557 165.089L137.686 165.07C137.686 165.07 137.773 165.07 137.811 165.07C138.081 164.886 137.213 164.925 137.445 164.78C136.74 165.012 134.637 165.195 134.714 164.78C134.627 164.983 134.241 165.002 133.798 165.002C133.364 164.983 132.871 164.944 132.572 165.079C132.794 165.118 133.007 165.166 133.209 165.263L132.447 165.147C132.447 165.147 132.534 165.098 132.572 165.079C131.665 164.925 130.623 165.147 129.485 165.021C129.881 165.291 128.346 165.089 127.922 165.176C128.038 165.166 128.279 165.137 128.221 165.098C127.893 164.857 126.899 165.224 126.253 165.06C125.963 164.954 126.34 164.828 125.867 164.79C125.848 164.992 124.092 165.05 123.474 164.761C123.773 164.79 123.783 164.703 123.966 164.645C122.442 164.645 120.869 164.5 119.306 164.23L116.952 163.892C116.171 163.757 115.389 163.651 114.608 163.593L115.206 163.4C113.382 162.629 113.845 163.68 112.35 163.256C108.24 162.175 104.207 160.41 100.348 159.02C100.029 158.991 100.463 159.184 100.463 159.319C100.145 159.155 100.145 158.885 99.6337 158.847L99.6723 159.039C98.8908 158.461 97.6269 157.978 96.4209 157.486C95.2438 156.946 94.1246 156.415 93.6615 155.798C91.9634 155.171 91.0565 154.206 88.9918 153.424C88.4708 152.952 89.8216 153.588 89.0401 153.077C88.4129 152.807 87.7955 152.546 87.1876 152.247L87.2938 152.286C85.3738 151.668 83.2705 149.063 81.1093 147.925L81.2058 147.963C81.3216 147.906 80.9839 147.5 80.6462 147.307C80.4918 147.298 80.6752 147.481 80.8102 147.693C78.9385 146.584 78.5622 146.294 77.1632 145.301C77.8482 145.619 76.7098 144.77 76.7966 144.538C76.3431 144.384 76.8545 144.886 75.9765 144.384C74.8284 143.535 73.9311 142.551 73.0531 141.76C72.5514 141.625 72.098 141.19 71.905 141.364C70.6411 140.37 69.8789 139.888 68.3545 138.643L68.3738 138.547C67.7563 138.46 67.1485 137.351 66.7529 137.264C66.8687 137.206 67.0617 137.302 67.0713 137.206L66.3091 136.723C66.695 136.916 67.081 136.829 66.531 136.337C65.7978 136.029 66.5985 136.588 66.1933 136.501V136.125C65.7302 135.787 65.3925 135.952 65.8846 136.463C64.3602 135.228 62.7586 134.138 61.4175 133.018L61.6877 132.98C60.8772 132.449 59.8449 131.658 59.4975 131.166C59.4396 131.195 59.1888 131.137 59.2756 131.282C58.2722 130.848 59.2081 130.935 58.4073 130.539C58.3398 130.5 58.2626 130.471 58.195 130.442C58.2819 130.481 58.3494 130.51 58.4073 130.539C58.6292 130.645 58.8511 130.751 58.9283 130.703C58.2529 130.307 57.5776 129.893 56.8925 129.516C56.9601 129.391 55.9856 128.301 55.0883 127.847C55.0112 127.895 55.1848 128.137 55.3778 128.301L55.5997 128.416L55.3778 128.301C55.1945 128.194 55.0015 128.098 54.8182 128.001L54.5963 127.452L53.6701 127.201L53.6411 127.259L53.4964 127.152L53.6797 127.201L53.8244 126.959C53.2263 126.631 52.8114 126.795 52.3579 126.496C50.7177 125.29 51.1326 125.396 49.9941 124.47C49.5986 124.856 47.9777 123.341 47.4663 123.554C47.0804 123.255 46.6269 122.946 46.1252 122.685C45.6139 122.425 45.0639 122.174 44.4851 121.933C43.3273 121.45 42.0537 121.074 40.8863 120.582L41.0986 120.611C40.1434 120.051 39.7961 120.669 38.7155 120.244H39.0146C38.6769 120.08 38.2524 119.916 37.7989 119.781C37.3358 119.666 36.8341 119.579 36.3228 119.511C35.8211 119.434 35.3194 119.386 34.8466 119.337C34.3835 119.309 33.9493 119.328 33.5923 119.337C33.8914 119.299 33.766 119.106 33.3125 119.067C32.917 119.125 33.6309 119.492 32.8591 119.289C33.0617 119.26 32.917 119.125 32.7433 119.096L31.9425 119.26C30.9391 119.087 29.8392 118.932 28.72 118.836C27.6009 118.816 26.4624 118.749 25.4107 118.942C25.0152 118.874 25.295 118.759 25.3818 118.662C24.7161 118.72 24.06 118.836 23.4136 118.971V212.635C23.4136 222.273 31.2286 230.088 40.867 230.088H165.559C175.198 230.088 183.013 222.273 183.013 212.635V148.156C182.675 148.407 182.328 148.648 181.98 148.88C181.44 148.861 182.926 148.282 182.405 148.195V148.185ZM181.401 149.169L180.88 149.305L181.498 148.861L181.401 149.169Z" fill="#15172F"/>
<path d="M23.4521 143.64V50.4105C23.4521 40.772 31.2671 32.957 40.9056 32.957" stroke="#15172F" stroke-width="0.83" stroke-linecap="round" stroke-linejoin="round"/>
<path d="M39.0052 130.085C26.067 125.077 30.0517 108.541 40.7708 107.962C50.9109 107.412 52.6573 99.452 49.8882 93.0553C47.9393 88.5496 47.6016 82.9055 50.8434 78.8919C52.8309 76.4413 56.4297 75.9492 58.2146 73.3538C59.9995 70.7585 59.4302 67.3624 58.9575 64.5355C58.1856 59.9044 56.5937 54.7619 59.6618 50.5843C62.3826 46.8698 67.004 47.1013 71.0273 45.9918C73.1788 45.4032 75.3207 44.2841 76.5267 42.3351C79.0931 38.1961 76.2758 33.8062 76.0636 29.4935C75.8031 24.4572 79.836 19.5656 84.8337 18.8613C86.1266 18.678 87.4387 18.7455 88.7316 18.5429C93.8451 17.7614 94.4529 11.6638 96.508 7.92032C98.5244 4.25403 102.827 1.55254 106.87 2.62348C110.112 3.48216 112.427 6.4731 115.611 7.52474C122.008 9.63768 127.488 3.048 133.875 5.43109C137.59 6.82042 138.294 10.6025 138.14 14.1241C138.082 15.4651 137.947 16.8931 138.757 18.0219C140.513 20.4532 143.9 20.1252 146.08 21.8908C150.991 25.8754 147.411 31.0082 146.022 35.6393C145.154 38.5241 146.041 40.9844 147.836 43.3096C151.058 47.4969 153.47 51.1439 152.033 56.6915C151.165 60.0298 149.09 62.9049 148.376 66.3011C147.064 72.5241 151.242 75.8334 153.683 80.8697C156.828 87.3436 151.647 92.4764 150.393 98.5933C148.984 105.501 156.346 112.506 150.19 118.285" fill="white"/>
<path d="M182.513 153.544V229.587H83.4245L75.9946 228.445L75.8384 228.421L75.6967 228.491C66.9369 232.83 57.8375 236.688 49.2643 239.176C40.6828 241.667 32.6725 242.773 26.0722 241.652C19.5004 240.535 14.3317 237.216 11.346 230.814C8.3432 224.376 7.51908 214.759 9.83008 201.004C17.691 154.228 35.7749 129.41 55.5449 116.266C75.3317 103.111 96.8928 101.592 111.829 101.592C120.302 101.592 128.96 104.815 137.203 109.693C145.443 114.568 153.235 121.077 159.968 127.597C166.698 134.116 172.359 140.637 176.338 145.529C178.327 147.975 179.895 150.012 180.965 151.438C181.5 152.15 181.91 152.71 182.186 153.091C182.325 153.281 182.429 153.427 182.499 153.525L182.513 153.544Z" fill="white" stroke="#15172F"/>
<path d="M62.6908 146.961C62.6908 146.961 47.4275 190.358 47.717 200.026C60.6261 197.884 93.4297 188.988 93.4297 188.988" stroke="#15172F" stroke-width="0.83" stroke-linecap="round" stroke-linejoin="round"/>
<path d="M92.8602 102.23C62.2564 106.341 22.1588 124.527 9.32679 200.921C1.0873 249.953 32.8489 247.483 64.543 234.178" stroke="#353535" stroke-width="0.83" stroke-linecap="round" stroke-linejoin="round"/>
<path d="M92.8614 102.23L93.9516 65.3264C93.9516 65.3264 83.3966 62.403 84.5254 52.9286C85.6542 43.4541 93.9516 49.7736 93.9516 49.7736C93.9516 49.7736 92.4465 24.6113 110.537 24.6113C128.627 24.6113 136.924 32.1562 136.924 32.1562C136.924 32.1562 139.182 53.2662 139.182 65.336C139.182 77.4058 135.41 83.4359 127.112 87.9609L127.865 104.015C127.865 104.015 130.962 122.646 116.104 122.646C94.8007 122.646 92.8324 102.24 92.8324 102.24L92.8614 102.23Z" fill="#15172F"/>
<path d="M39.0052 130.085C26.067 125.077 30.0517 108.541 40.7708 107.962C50.9109 107.412 52.6573 99.452 49.8882 93.0553C47.9393 88.5496 47.6016 82.9055 50.8434 78.8919C52.8309 76.4413 56.4297 75.9492 58.2146 73.3538C59.9995 70.7585 59.4302 67.3624 58.9575 64.5355C58.1856 59.9044 56.5937 54.7619 59.6618 50.5843C62.3826 46.8698 67.004 47.1013 71.0273 45.9918C73.1788 45.4032 75.3207 44.2841 76.5267 42.3351C79.0931 38.1961 76.2758 33.8062 76.0636 29.4935C75.8031 24.4572 79.836 19.5656 84.8337 18.8613C86.1266 18.678 87.4387 18.7455 88.7316 18.5429C93.8451 17.7614 94.4529 11.6638 96.508 7.92032C98.5244 4.25403 102.827 1.55254 106.87 2.62348C110.112 3.48216 112.427 6.4731 115.611 7.52474C122.008 9.63768 127.488 3.048 133.875 5.43109C137.59 6.82041 138.294 10.6025 138.14 14.124C138.082 15.4651 137.947 16.8931 138.757 18.0219C140.513 20.4532 143.9 20.1252 146.08 21.8908C150.991 25.8754 147.411 31.0082 146.022 35.6393C145.154 38.5241 146.041 40.9844 147.836 43.3096C151.058 47.4969 153.47 51.1439 152.033 56.6915C151.165 60.0298 149.09 62.9049 148.376 66.3011C147.064 72.5241 151.242 75.8334 153.683 80.8697C156.828 87.3436 151.647 92.4764 150.393 98.5933C148.984 105.501 156.346 112.506 150.19 118.285" stroke="#15172F" stroke-width="0.83" stroke-linecap="round" stroke-linejoin="round"/>
<path d="M132.766 101.082C132.766 101.082 140.233 123.417 122.954 128.174C102.577 133.779 85.3934 119.751 86.1266 103.349" stroke="#15172F" stroke-width="0.83" stroke-linecap="round" stroke-linejoin="round"/>
<path d="M116.132 149.305C116.132 149.305 124.362 197.121 122.442 242.438" stroke="#15172F" stroke-width="0.83" stroke-linecap="round" stroke-linejoin="round"/>
<path d="M124.661 43.957C124.661 43.957 126.157 53.6341 126.369 61.999" stroke="white" stroke-width="0.83" stroke-linecap="round" stroke-linejoin="round"/>
<path d="M93.9515 49.7639C96.4503 51.6453 101.815 48.4422 101.014 41.4087C100.213 34.3656 105.413 26.6856 115.168 30.6896C121.034 33.092 123.436 39.3247 128.926 34.8479C134.416 30.3712 137.252 35.2821 137.252 35.2821L140.6 35.3303L137.879 23.6561L105.413 15.6289L92.7744 29.0977L93.9418 49.7736L93.9515 49.7639Z" fill="white"/>
<path d="M89.1268 219.205L87.969 227.309L62.6909 242.582L67.4474 224.164L89.1268 219.205Z" fill="white"/>
<path d="M93.4298 188.996L87.969 227.309L62.6909 242.582L74.8572 195.499" stroke="#15172F" stroke-width="0.83" stroke-linecap="round" stroke-linejoin="round"/>
<path d="M183.013 50.4102V212.624C183.013 222.262 175.198 230.077 165.559 230.077H104.931" stroke="#15172F" stroke-width="0.83" stroke-linecap="round" stroke-linejoin="round"/>
<path d="M259.85 188.61C259.262 179.116 251.408 171.455 241.895 171.098C238.017 170.953 234.399 171.986 231.35 173.867C229.932 174.745 228.108 173.771 228.108 172.111V140.215C228.108 137.986 226.304 136.182 224.075 136.182H202.753C199.887 136.182 197.938 139.144 199.125 141.749C200.254 144.219 200.843 146.988 200.765 149.901C200.505 159.356 192.921 167.229 183.476 167.808C172.738 168.474 163.832 159.964 163.832 149.371C163.832 146.669 164.411 144.103 165.453 141.797C166.64 139.163 164.749 136.182 161.855 136.182H139.712C137.483 136.182 135.679 137.986 135.679 140.215V179.019C135.679 225.948 173.722 264 220.66 264H225.079C226.748 264 228.108 262.649 228.108 260.97V207.51C228.108 205.86 229.912 204.867 231.321 205.735C234.177 207.51 237.554 208.533 241.162 208.533C251.9 208.533 260.526 199.493 259.85 188.619V188.61Z" fill="white"/>
<path d="M224.442 225.65V203.845C224.442 202.196 226.246 201.202 227.655 202.07C230.511 203.845 233.887 204.868 237.496 204.868C248.234 204.868 256.86 195.828 256.184 184.954C255.596 175.461 247.742 167.8 238.229 167.443C234.351 167.298 230.732 168.331 227.684 170.212C226.265 171.09 224.442 170.116 224.442 168.456" stroke="#15172F" stroke-width="0.72" stroke-linecap="round" stroke-linejoin="round"/>
<path d="M136.383 187.558C136.383 187.558 137.676 185.243 137.995 184.49C138.313 183.738 146.852 184.172 149.515 183.419C152.177 182.676 155.062 180.216 148.338 180.11C141.622 180.004 131.588 178.402 131.588 178.402L136.383 187.549V187.558Z" fill="#15172F"/>
<path d="M217.939 156.221C220.119 158.325 232.276 151.523 235.228 148.281C238.181 145.039 235.151 141.325 231.543 143.496C227.925 145.666 214.639 153.047 217.939 156.231V156.221Z" fill="#15172F"/>
<path d="M222.281 157.65C224.123 160.39 233.395 155.701 236.183 153.694C238.972 151.687 236.183 147.587 233.453 148.387C230.723 149.188 220.032 154.292 222.281 157.65Z" fill="#15172F"/>
<path d="M222.203 161.268C223.815 164.153 233.443 160.246 236.386 158.48C239.329 156.715 236.897 152.392 234.109 152.961C231.321 153.531 220.235 157.728 222.203 161.268Z" fill="#15172F"/>
<path d="M223.255 164.653C224.268 167.799 230.501 166.786 233.733 165.628C236.965 164.47 235.421 159.752 232.575 159.772C229.729 159.791 222.02 160.804 223.255 164.653Z" fill="#15172F"/>
<path d="M153.905 172.961C156.809 171.591 154.985 170.057 153.538 169.536C152.091 169.015 147.296 166.477 142.964 164.924C138.632 163.371 131.743 168.301 131.743 168.301C131.743 168.301 132.225 163.477 132.225 159C132.225 149.207 129.36 151.87 129.138 154.919C128.733 160.64 121.67 178.624 121.67 178.624C105.413 186.208 93.4205 188.996 93.4205 188.996L88.6929 222.186C105.384 212.885 122.606 199.348 128.115 198.432C137.29 196.908 137.339 179.502 137.339 179.502C146.63 176.318 153.355 176.801 156.307 175.411C159.25 174.022 153.895 172.951 153.895 172.951L153.905 172.961Z" fill="#15172F"/>
<path d="M220.419 132.516H199.096C196.231 132.516 194.282 135.478 195.468 138.083C196.597 140.552 197.186 143.322 197.109 146.235C196.848 155.69 189.265 163.563 179.819 164.142C169.081 164.808 160.176 156.298 160.176 145.705C160.176 143.003 160.755 140.437 161.797 138.131C162.983 135.497 161.092 132.516 158.198 132.516H136.055C133.827 132.516 132.022 134.32 132.022 136.549V175.353C132.022 213.483 157.137 245.756 191.735 256.513" stroke="#15172F" stroke-width="0.72" stroke-linecap="round" stroke-linejoin="round"/>
<defs>
<linearGradient id="paint0_linear_6316_28099" x1="246.369" y1="104.35" x2="151.925" y2="287.416" gradientUnits="userSpaceOnUse">
<stop stop-color="#E1CDFF"/>
<stop offset="1" stop-color="#D1B3FF"/>
</linearGradient>
</defs>
</svg>
